<?xml version="1.0" encoding="UTF-8"?>
<svg version="1.1" viewBox="0 0 1600 528" xmlns="http://www.w3.org/2000/svg">
<path transform="translate(329 161)" d="m0 0c6.68 5.31 10.5 12.5 11.5 21 0.102 2.25 0.118 4.48 0.0965 6.73 0.00397 0.851 0.00795 1.7 0.012 2.58 0.00956 2.83-0.00215 5.65-0.014 8.48 0.00243 2.04 0.00615 4.07 0.0111 6.11 0.00938 5.51 5.99e-6 11-0.0133 16.5-0.0113 5.78-0.0072 11.6-0.00525 17.3 8.82e-4 9.7-0.0102 19.4-0.0286 29.1-0.0212 11.2-0.0247 22.4-0.0184 33.6 0.0057 10.8 3.92e-5 21.6-0.0112 32.4-0.00464 4.59-0.00552 9.17-0.00341 13.8 0.00189 5.4-0.00626 10.8-0.0221 16.2-0.00423 1.98-0.0051 3.96-0.00231 5.94 0.00324 2.71-0.00591 5.42-0.0181 8.13 0.00378 0.777 0.00756 1.55 0.0115 2.35-0.0633 8-1.1 15.2-6.27 21.6-6.26 5.77-11.6 7.54-20 7.28-11.7-1.07-20.6-7.95-28-16.7-3.2-4-6.33-8.04-9.43-12.1-6.56-8.63-13.3-17.1-20.2-25.5-4.76-5.84-9.41-11.7-14-17.7-7.87-10.3-16-20.4-24.1-30.5-1.22-1.52-2.43-3.05-3.64-4.57-2.93-3.7-5.88-7.34-9.02-10.9-4.66-5.27-8.93-10.9-13.2-16.4-1.41-1.81-2.83-3.61-4.24-5.41-0.463-0.588-0.926-1.18-1.4-1.78-0.672-0.853-0.672-0.853-1.36-1.72-3.57-4.53-7.11-9.1-10.6-13.7-0.463-0.603-0.927-1.21-1.4-1.83-1.14-1.48-2.27-2.96-3.41-4.43-0.00239 0.74-0.00478 1.48-0.00724 2.24-0.0592 18-0.135 36-0.228 54.1-0.0449 8.71-0.0843 17.4-0.111 26.1-0.023 7.6-0.0564 15.2-0.102 22.8-0.0239 4.02-0.0426 8.04-0.0489 12.1-0.00607 3.79-0.0261 7.58-0.0567 11.4-0.00876 1.39-0.0125 2.77-0.0107 4.16 0.00795 9.08-0.449 15.7-5.62 23.4-5.54 5.42-10 7-17.8 7.25-5.95-0.178-10.1-1.09-15-4.5l-2.75-1.75c-4.83-4.83-6.69-10.2-6.79-17 0.00824-0.826 0.0165-1.65 0.025-2.5-0.00695-0.898-0.0139-1.8-0.021-2.72-0.0182-2.99-0.00802-5.98 0.00226-8.98-0.00706-2.15-0.0158-4.3-0.0261-6.46-0.0225-5.83-0.0196-11.7-0.0107-17.5 0.00511-4.88-0.00219-9.75-0.00947-14.6-0.017-11.5-0.0134-23 0.00329-34.5 0.0169-11.9 0.00109-23.7-0.0312-35.6-0.0267-10.2-0.034-20.4-0.0255-30.6 0.00492-6.08 0.00274-12.2-0.0178-18.2-0.0184-5.72-0.0124-11.4 0.0122-17.2 5e-3 -2.1 0.00154-4.19-0.0111-6.29-0.118-21.2-0.118-21.2 5.65-28.1 6.34-5.34 14.1-5.6 22-5 15 2.35 24.4 16.9 33 28 0.936 1.19 1.87 2.39 2.81 3.58 1.34 1.71 2.69 3.42 4.02 5.13 4.04 5.16 8.17 10.2 12.3 15.3 3.59 4.4 7.11 8.86 10.6 13.3 3.12 4.01 6.31 7.88 9.75 11.6 3.95 4.3 7.55 8.8 11.1 13.4 3.56 4.58 7.2 9.1 10.9 13.6 4.05 4.96 8.06 9.95 12 15 5.51 7.05 11.1 14 16.8 20.9 2.94 3.61 5.89 7.22 8.83 10.8 0.544 0.668 1.09 1.34 1.65 2.02 0.51 0.627 1.02 1.25 1.55 1.9 0.669 0.821 0.669 0.821 1.35 1.66 1.48 1.86 2.9 3.76 4.33 5.67 0.00147-0.733 0.00293-1.47 0.00444-2.22 0.0371-17.9 0.0962-35.7 0.179-53.6 0.0398-8.64 0.0722-17.3 0.0871-25.9 0.013-7.53 0.0401-15.1 0.0836-22.6 0.0226-3.99 0.0383-7.97 0.0373-12-7.49e-4 -3.76 0.0173-7.51 0.0493-11.3 0.0125-2.02 0.00546-4.05-0.00231-6.07 0.0987-8.7 1.32-15.8 6.42-23 9.93-9.54 20.1-11 31.9-3.18z" fill="#1D1F20"/>
<path transform="translate(1305 159)" d="m0 0c1-0.00511 2.01-0.0102 3.04-0.0155 3.31-0.0139 6.62-0.0129 9.94-0.0106 2.32-0.00389 4.64-0.00823 6.96-0.013 4.87-0.00746 9.74-0.00718 14.6-0.00191 6.19 0.00576 12.4-0.0111 18.6-0.0343 4.8-0.0149 9.6-0.0156 14.4-0.0125 2.28-5.08e-4 4.56-0.00565 6.84-0.0158 27.1-0.106 52.5 2.47 73.1 22.1 16.6 16.6 25 37.1 25.6 60.6-0.313 19.1-6.02 39.4-19.5 53.4-19.5 18.3-19.5 18.3-28.8 18.3 8.07 10.7 16.4 21.1 25.5 30.9 4.03 4.43 7.73 9.07 11.4 13.8 2.19 2.83 4.39 5.63 6.7 8.35 7.19 8.49 10 14.3 9.75 25.6-0.632 6.09-3.18 9.4-7.59 13.6-5.52 4.39-11.3 6.39-18.4 6.09-9.43-1.36-16.8-6.47-22.6-13.9-2.86-3.95-5.54-8.02-8.23-12.1-2.71-4.06-5.54-8.05-8.35-12.1-1.19-1.7-2.39-3.41-3.58-5.11-0.596-0.85-1.19-1.7-1.81-2.58-2.35-3.36-4.71-6.72-7.06-10.1-1.15-1.65-2.31-3.3-3.46-4.94-3.08-4.4-6.16-8.8-9.24-13.2-0.645-0.924-1.29-1.85-1.96-2.8-1.25-1.78-2.49-3.57-3.73-5.35-0.834-1.19-0.834-1.19-1.69-2.41-0.492-0.705-0.984-1.41-1.49-2.14-1.08-1.59-1.08-1.59-2.18-2.63-1.81-0.123-3.62-0.178-5.44-0.205-1.16-0.0199-2.32-0.0399-3.52-0.0604-1.26-0.0167-2.53-0.0334-3.83-0.0506-1.29-0.0208-2.57-0.0416-3.9-0.063-3.42-0.0553-6.85-0.105-10.3-0.153-3.49-0.0502-6.98-0.106-10.5-0.161-6.86-0.108-13.7-0.209-20.6-0.307 0.00888 0.897 0.0178 1.79 0.0269 2.72 0.0803 8.47 0.141 16.9 0.18 25.4 0.0208 4.36 0.0491 8.71 0.0945 13.1 0.0436 4.21 0.0674 8.42 0.0778 12.6 0.00736 1.6 0.0217 3.2 0.0434 4.8 0.122 9.39 0.157 16.7-6.03 24.4-6.17 5.16-13 7.71-21.1 7.35-7.72-1.13-13-4.22-17.9-10.1-3.44-5.49-3.67-10.8-3.64-17.1-0.00453-0.881-0.00906-1.76-0.0137-2.67-0.0126-2.95-0.011-5.89-0.00937-8.84-0.00599-2.11-0.0128-4.23-0.0204-6.34-0.0177-5.74-0.0224-11.5-0.0236-17.2-0.00142-3.59-0.00569-7.17-0.011-10.8-0.0185-12.5-0.0267-25-0.0251-37.6 0.0012-11.7-0.0199-23.3-0.0515-35-0.0262-10-0.0369-20-0.0356-30.1 5.1e-4 -5.98-0.00517-12-0.0264-17.9-0.0194-5.63-0.0195-11.3-0.00497-16.9 0.00209-2.06-0.00262-4.12-0.0147-6.19-0.0155-2.82-0.00612-5.64 0.00926-8.46-0.0103-0.81-0.0206-1.62-0.0312-2.45 0.0822-6.85 2.08-12.8 6.42-18.1 0.633-0.527 1.27-1.05 1.92-1.6 0.625-0.545 1.25-1.09 1.89-1.65 6.12-3.76 12.5-3.7 19.5-3.68zm18.8 44.3c-0.0231 9.89-0.0409 19.8-0.0518 29.7-0.00523 4.59-0.0123 9.19-0.0236 13.8-0.0108 4.43-0.0168 8.86-0.0194 13.3-0.00185 1.69-0.00547 3.39-0.0109 5.08-0.00721 2.36-0.00826 4.73-0.0078 7.09-0.0036 0.707-0.00719 1.41-0.0109 2.14-0.272 3.25-0.272 3.25 1.12 5.95 2.18 0.105 4.37 0.139 6.55 0.145 1.03 0.00504 1.03 0.00504 2.07 0.0102 2.28 0.00955 4.56 0.0115 6.84 0.0125 1.59 0.00321 3.17 0.00658 4.76 0.0101 3.34 6e-3 6.68 0.00784 10 0.00725 4.25-1.01e-4 8.5 0.0135 12.8 0.0308 3.28 0.0112 6.57 0.0131 9.85 0.0126 1.57 0.00117 3.13 0.00554 4.7 0.0133 14.3 0.0645 27.7-0.34 38.8-10.4 3.24-3.55 5.5-7.55 7.66-11.8 0.343-0.675 0.686-1.35 1.04-2.05 3.69-8.89 3.36-20.9 0.336-30-3.82-8.81-9.71-15.8-18.5-19.9-6.23-2.44-11.9-3.15-18.5-3.11-0.752-1.46e-4 -1.5-2.92e-4 -2.28-4.42e-4 -2.47 6.94e-4 -4.95 0.00846-7.42 0.0163-1.72 0.00187-3.44 0.00329-5.16 0.00429-4.52 0.00381-9.03 0.0136-13.5 0.0247-4.61 0.0102-9.22 0.0148-13.8 0.0198-9.04 0.0107-18.1 0.0278-27.1 0.0488z" fill="#1D1F20"/>
<path transform="translate(386 159)" d="m0 0c1.17-0.00571 2.34-0.0114 3.55-0.0173 1.28-0.00112 2.56-0.00224 3.88-0.00339 1.37-0.00463 2.73-0.00966 4.1-0.015 3.71-0.0131 7.41-0.0196 11.1-0.024 2.32-0.00293 4.64-0.00704 6.96-0.0115 7.26-0.0137 14.5-0.0233 21.8-0.0272 8.37-0.00448 16.7-0.022 25.1-0.051 6.48-0.0217 13-0.0317 19.4-0.033 3.86-0.00105 7.73-0.0069 11.6-0.0248 3.64-0.0166 7.28-0.0186 10.9-0.00986 1.96 0.00113 3.92-0.0125 5.88-0.0268 9.25 0.0435 17.5 0.958 24.5 7.53 4.48 5.51 6.28 12.3 5.95 19.3-1.27 7.19-4.95 12.8-10.5 17.4-6.04 3.6-12.1 3.46-18.9 3.48-1.09 0.01-2.19 0.0201-3.31 0.0304-3.6 0.0308-7.21 0.0479-10.8 0.0648-2.5 0.0187-5 0.0383-7.51 0.0587-5.91 0.0461-11.8 0.0835-17.7 0.117-8.57 0.0488-17.1 0.115-25.7 0.179-12 0.0882-24 0.158-36 0.231v53c6.98 0.0374 14 0.0748 21.2 0.113 4.43 0.0303 8.86 0.0614 13.3 0.0957 7.03 0.0543 14.1 0.105 21.1 0.137 5.67 0.0261 11.3 0.0665 17 0.117 2.16 0.0167 4.32 0.0282 6.48 0.0344 3.03 0.00966 6.06 0.0377 9.09 0.07 1.33-0.00215 1.33-0.00215 2.69-0.00435 7.09 0.106 13.9 1.33 19 6.62 5.84 6.41 6.89 13 6.66 21.6-0.898 6.19-3.7 11-8.55 14.9-4.22 2.74-7.96 4.42-13 4.47-1.26 0.0147-1.26 0.0147-2.54 0.0297-1.37 0.00863-1.37 0.00863-2.77 0.0174-0.966 0.0099-1.93 0.0198-2.93 0.03-3.2 0.0316-6.4 0.0564-9.59 0.0811-2.22 0.0206-4.43 0.0416-6.65 0.063-5.83 0.0552-11.7 0.105-17.5 0.153-7 0.059-14 0.125-21 0.19-10.6 0.098-21.3 0.187-31.9 0.277v53c8.34 0.0374 16.7 0.0748 25.3 0.113 5.96 0.0341 11.9 0.0701 17.9 0.109 7.72 0.0498 15.4 0.0953 23.2 0.124 6.77 0.0255 13.5 0.0665 20.3 0.117 2.58 0.0167 5.16 0.0282 7.74 0.0344 3.62 0.00965 7.24 0.0377 10.9 0.07 1.59-0.00215 1.59-0.00215 3.22-0.00435 7.47 0.094 13.9 1.18 20.3 5.12 6.85 7.04 8.65 13.6 8.52 23.3-0.48 5.41-2.18 9.04-6.11 12.8-5.79 4.61-11.2 6.49-18.6 6.52-1.91 0.0128-1.91 0.0128-3.87 0.0258-1.4-6.99e-4 -2.8-0.00162-4.2-0.00275-1.49 0.00599-2.97 0.0128-4.46 0.0204-4.02 0.0176-8.05 0.0224-12.1 0.0236-2.52 0.00142-5.03 0.0057-7.55 0.011-8.79 0.0185-17.6 0.0267-26.4 0.0251-8.18-0.0012-16.4 0.0199-24.5 0.0515-7.03 0.0262-14.1 0.0369-21.1 0.0356-4.2-5.09e-4 -8.39 0.00514-12.6 0.0264-3.95 0.0194-7.9 0.0195-11.8 0.00497-1.44-0.00208-2.89 0.00259-4.33 0.0147-9.02 0.0708-15.5-0.256-22.7-6.18-0.446-0.54-0.892-1.08-1.35-1.64-0.692-0.799-0.692-0.799-1.4-1.61-3.35-5.67-3.52-11.6-3.49-18-0.00383-0.874-0.00765-1.75-0.0116-2.65-0.0103-2.92-0.00635-5.83-0.00237-8.75-0.00435-2.1-0.00953-4.19-0.0155-6.29-0.0134-5.69-0.014-11.4-0.0114-17.1 0.00107-4.75-0.00382-9.5-0.00861-14.2-0.0111-11.2-0.0115-22.4-0.00549-33.6 0.00604-11.6-0.00628-23.1-0.0276-34.7-0.0176-9.93-0.0236-19.9-0.0204-29.8 0.00181-5.93-8.21e-4 -11.9-0.0147-17.8-0.0126-5.57-0.0106-11.1 0.00241-16.7 0.00237-2.04-3.68e-4 -4.09-0.00862-6.13-0.0105-2.79-0.00236-5.59 0.0103-8.38-0.00737-0.805-0.0147-1.61-0.0223-2.44 0.0753-7.91 2.39-14.3 7.78-20.1 5.06-4.62 10.8-5.59 17.3-5.61z" fill="#1D1E20"/>
<path transform="translate(1155,166)" d="m0 0c0.669 0.416 1.34 0.833 2.03 1.26 1.97 1.3 1.97 1.3 4.97 3.74v3c1.19 1.49 2.39 2.97 3.63 4.41 5.89 6.84 9.13 15.2 8.78 24.3-1.5 8.27-6.95 15.8-13.5 20.9-2.25 1.55-4.54 2.99-6.9 4.38-0.58 0.358-1.16 0.717-1.76 1.09-11.4 6.39-25.1 8.38-37.8 10.5-10.9 1.81-21.4 4.48-31.8 8.45-1.84 0.697-3.71 1.35-5.58 1.96-5.69 1.89-8.96 3.54-13.1 8.04-1.72 1.21-3.45 2.39-5.19 3.56-10.2 7.35-16.9 16.9-21.8 28.4-0.339 0.777-0.678 1.55-1.03 2.36-1.51 3.71-2.1 6.67-1.97 10.6 0.485-0.364 0.969-0.727 1.47-1.1 1.42-1.07 2.85-2.13 4.28-3.2 1.35-1.03 2.69-2.07 4-3.16 15-12.2 34.5-17.4 53.2-20.5 1.06-0.181 1.06-0.181 2.15-0.366 7.48-1.26 15-2.43 22.5-3.31 10.5-1.25 19.8-2.58 29.4-7.32 0.999-0.481 2-0.962 3.03-1.46 18.1-9.6 28.8-27.4 38.5-44.8 3.31-5.83 6.98-12.2 13.4-14.8 5.1-0.523 9.52-0.727 14 2l2 2 2 1v2c0.99 0.33 1.98 0.66 3 1l2 1c0.217 1.13 0.217 1.13 0.438 2.28 0.636 3.08 1.73 4.75 3.56 7.29 2.03 2.82 3.38 5 4 8.44h2c0.326 0.918 0.652 1.84 0.988 2.78 3.74 10.7 3.74 10.7 7.82 21.2 1.86 4.64 2.89 9.01 3.19 14 0.0877 1.07 0.175 2.13 0.266 3.23 0.42 8.76-0.87 14.8-6.27 21.8-2.79 3-5.74 5.54-9 8-0.592 0.471-1.18 0.941-1.79 1.43-19.1 13.6-48.5 11.2-70.3 7.7-9.43-1.69-18.7-4.05-28-6.4-25.8-6.51-52.6-10-76.9 3.28-13.4 8.28-22.6 20.1-26.9 35.3-1.92 8.21-2.7 16.3-3.07 24.7-9.67-8.76-15.8-20.2-21-32v-2l-2-1c-0.693-1.99-1.36-3.99-2-6l-2-3c-3.51-9.04-3.71-18.4-4-28-0.0412-0.935-0.0825-1.87-0.125-2.83-0.837-33.2 10.5-64.1 32.1-89.2 0.934-1.13 0.934-1.13 1.89-2.29 24.6-29 87-58.5 123-34.7z" fill="#F09608"/>
<path transform="translate(676 153)" d="m0 0c1.32 0.00564 2.63 0.0113 3.99 0.0171 9.71 0.121 18.8 0.709 28.2 3.3 0.725 0.199 1.45 0.397 2.2 0.602 16.9 4.79 30.9 12.8 44.8 23.4 1.23 0.911 1.23 0.911 2.48 1.84 6.13 4.88 9.83 10.5 11 18.3 0.336 7.51-0.79 13.8-5.48 19.8-7.29 6.14-14.7 6.75-24 6-6.39-1.62-10.7-6.32-15.4-10.7-16.2-14.2-35.9-16.6-56.6-15.3-10.6 0.999-20.3 3.58-30 8-0.932 0.419-1.86 0.838-2.82 1.27-17 8.44-28.9 24.4-35.4 42-8.32 25.6-6.62 53.5 5.19 77.8 9.26 17.4 25.6 29.7 44 36 22.8 6.69 46.2 4.69 67.4-6.06 6.07-3.39 11.5-7.49 16.9-11.8 5.6-4.42 10.8-6.63 18.1-5.96 6.85 0.817 11.5 2.81 16.4 7.69 5.48 7.99 6.14 14.5 5.19 24.2-2.49 10.5-13.6 18.3-22.3 23.8-31.5 18.7-75.6 21-110 12.5-5.85-1.55-11.6-3.39-17.3-5.35-1.2-0.391-2.41-0.781-3.64-1.18-14-4.88-25-13.5-35.4-23.8-0.875-0.864-1.75-1.73-2.65-2.62-23.4-24.3-32.1-59.8-31.8-92.6 0.00371-0.803 0.00741-1.61 0.0112-2.43 0.208-31.8 8.99-61.5 29.4-86.3 0.759-0.924 1.52-1.85 2.3-2.8 15.4-17.8 35.3-28.5 57.8-34.9 0.683-0.199 1.37-0.397 2.07-0.602 11.7-3.19 23.6-4.02 35.7-3.96z" fill="#1D1F20"/>
<path transform="translate(816 158)" d="m0 0c1.1-0.00446 1.1-0.00446 2.23-9e-3 2.46-0.00866 4.92-0.0102 7.39-0.0117 1.77-0.00463 3.54-0.00966 5.3-0.015 4.8-0.0131 9.6-0.0196 14.4-0.024 3-0.00293 6-0.00704 9-0.0115 9.4-0.0137 18.8-0.0233 28.2-0.0272 10.8-0.00448 21.7-0.022 32.5-0.051 8.38-0.0216 16.8-0.0317 25.1-0.033 5-0.00105 10-0.00692 15-0.0248 4.71-0.0165 9.42-0.0186 14.1-0.00986 1.72 7.68e-4 3.45-0.00354 5.17-0.0135 21.6-0.117 21.6-0.117 29.1 6.62 5.92 6.74 6.68 12.5 6.48 21.4-0.772 6.31-3.8 10.1-8.41 14.3-8.76 6.21-18.7 5.26-29 5.22-1.36-0.00187-2.72-0.00329-4.07-0.00429-3.55-0.0038-7.11-0.0136-10.7-0.0247-3.63-0.0103-7.27-0.0148-10.9-0.0198-7.11-0.0107-14.2-0.0277-21.3-0.0488-0.00147 0.972-0.00293 1.94-0.00444 2.94-0.0366 23.7-0.0961 47.3-0.179 71-0.0398 11.4-0.0722 22.9-0.0871 34.3-0.013 9.97-0.04 19.9-0.0836 29.9-0.0226 5.28-0.0383 10.6-0.0373 15.8 7.46e-4 4.97-0.0172 9.94-0.0493 14.9-0.0085 1.82-0.0102 3.64-0.00463 5.47 0.00666 2.49-0.0113 4.99-0.0352 7.48 0.00776 0.716 0.0155 1.43 0.0235 2.17-0.105 6.23-2.28 11.2-6.15 16-5.92 4.96-12.5 7.65-20.4 7.3-6.91-0.966-12.2-3.3-17-8.29-4.53-6.33-5.15-12.1-5.12-19.7-8.54e-4 -0.768-0.00171-1.54-0.00259-2.33-0.00164-2.57 0.00385-5.14 0.00932-7.71 2.82e-4 -1.84 1.24e-4 -3.69-4.43e-4 -5.53-2.87e-4 -5 0.00559-10 0.0126-15 0.00625-5.23 0.00684-10.5 0.00803-15.7 0.00311-9.9 0.0113-19.8 0.0213-29.7 0.0112-11.3 0.0167-22.5 0.0217-33.8 0.0105-23.2 0.028-46.4 0.0503-69.5-0.792 0.00444-1.58 0.00888-2.4 0.0135-7.5 0.0402-15 0.0706-22.5 0.0902-3.86 0.0104-7.71 0.0245-11.6 0.0473-3.73 0.0219-7.46 0.0337-11.2 0.0389-1.42 0.00367-2.83 0.0108-4.25 0.0217-21.4 0.158-21.4 0.158-29.4-6.43-4.76-5.03-7.03-11.7-6.9-18.5 0.695-7.4 3.67-13.3 9.21-18.2 6.04-3.7 11.4-4.12 18.4-4.14z" fill="#1C1F20"/>
<path transform="translate(1244,320)" d="m0 0c1.04 3.13 1.01 4.82 0.688 8.06-0.0786 0.878-0.157 1.76-0.238 2.66-0.449 2.28-0.449 2.28-2.45 4.28-0.121 0.706-0.242 1.41-0.367 2.14-0.877 3.96-2.75 7.11-4.76 10.6-0.407 0.713-0.813 1.43-1.23 2.16-3.14 5.41-6.53 10.4-10.6 15.1l-2.19 2.52c-23.6 26.6-53.2 41.6-88.8 44.5-16.7 0.727-32-1.9-47.9-6.43-1.7-0.477-3.42-0.92-5.13-1.36-11.7-3.08-21.5-10.4-28.4-20.3-0.916-1.6-1.74-3.25-2.55-4.91l-2-3c-1.57-11 1.15-24.1 7-33.6 5.62-7.15 14.5-10.8 23.3-12.1 14.3-1.32 28.8 0.523 42.6 4.25 35.9 9.42 73.3 6.3 106-10.1 1.13-0.549 2.26-1.1 3.43-1.66 1.03-0.512 2.05-1.02 3.11-1.55 3.56-1.29 6.38-1.34 10.1-1.14z" fill="#F07C09"/>
<path transform="translate(1218 204)" d="m0 0c1.82 1.11 1.82 1.11 3.82 3.11l2 1v2c0.99 0.33 1.98 0.66 3 1l2 1c0.217 1.13 0.217 1.13 0.438 2.28 0.636 3.08 1.73 4.75 3.56 7.29 2.03 2.82 3.38 5 4 8.44h2c0.326 0.918 0.652 1.84 0.988 2.78 3.74 10.7 3.74 10.7 7.82 21.2 1.86 4.64 2.89 9.01 3.19 14 0.0877 1.07 0.175 2.13 0.266 3.23 0.42 8.76-0.87 14.8-6.27 21.8-2.79 3-5.74 5.54-9 8-0.888 0.706-0.888 0.706-1.79 1.43-19.1 13.6-48.5 11.2-70.3 7.7-9.43-1.69-18.7-4.05-28-6.4-25.8-6.51-52.6-10-76.9 3.28-13.4 8.28-22.6 20.1-26.9 35.3-1.92 8.21-2.7 16.3-3.07 24.7-9.67-8.76-15.8-20.2-21-32v-2l-2-1c-0.693-1.99-1.36-3.99-2-6l-2-3c0.375-2.19 0.375-2.19 1-4l2.12 0.125c2.89 0.0294 2.89 0.0294 5.44-1.12 5.11-1.49 10.1-1.15 15.4-1v-3c2.26-1.55 4.55-2.78 7-4v-4c1.64-1.53 1.64-1.53 3.81-2.94 2.6-1.7 4.03-2.79 5.59-5.51 7.7-12.3 30-17.2 43.3-20.4 11.9-2.73 24.1-4.44 36.3-5.89 10.3-1.24 19.6-2.6 29-7.26 0.999-0.481 2-0.962 3.03-1.46 18.1-9.6 28.8-27.4 38.5-44.8 5.59-9.85 13.2-19 25.6-13.9z" fill="#F9D50E"/>
<path transform="translate(1218 204)" d="m0 0c1.82 1.11 1.82 1.11 3.82 3.11l2 1v2c0.99 0.33 1.98 0.66 3 1l2 1c0.217 1.13 0.217 1.13 0.438 2.28 0.636 3.08 1.73 4.75 3.56 7.29 2.03 2.82 3.38 5 4 8.44h2c0.326 0.918 0.652 1.84 0.988 2.78 3.74 10.7 3.74 10.7 7.82 21.2 1.86 4.64 2.89 9.01 3.19 14 0.0877 1.07 0.175 2.13 0.266 3.23 0.42 8.76-0.87 14.8-6.27 21.8-2.79 3-5.74 5.54-9 8-0.888 0.706-0.888 0.706-1.79 1.43-4.36 3.11-9.16 4.75-14.2 6.39-0.665 0.219-1.33 0.439-2.01 0.665-4.8 1.46-8.97 1.72-14 1.52l1.88-0.625c2.38-1.28 2.38-1.28 3.5-4.19 0.718-3.66 0.406-4.96-1.38-8.19l-1.69-1.75c-2.72-4.67-0.434-11.2 0.688-16.2l0.5-2.69c0.5-2.31 0.5-2.31 1.5-4.31 0.04-2 0.0435-4 0-6l-2-1c5.65-4.77 9.75-7.34 17-9l1-4c-4.65-0.269-4.65-0.269-9 1l-1 3-10 2v2h-9v2c-12.5 3.44-12.5 3.44-19 3v2c-0.574 0.0856-1.15 0.171-1.74 0.26-2.63 0.392-5.26 0.785-7.88 1.18-1.36 0.202-1.36 0.202-2.74 0.408-3.68 0.551-7.35 1.1-11 1.75-2.35 0.364-4.5 0.511-6.87 0.469-1.92-0.0319-3.83-0.0625-5.75-0.0625l-1 1c-1.69 0.229-3.4 0.398-5.1 0.543-48.1 4.1-48.1 4.1-90.9 24.5l-2-1c15.6-13 35.3-18.6 55-22 0.71-0.121 1.42-0.242 2.15-0.366 7.48-1.26 15-2.43 22.5-3.31 10.5-1.25 19.8-2.58 29.4-7.32 0.999-0.481 2-0.962 3.03-1.46 18.1-9.6 28.8-27.4 38.5-44.8 5.59-9.85 13.2-19 25.6-13.9z" fill="#E2740C"/>
<path transform="translate(1244,320)" d="m0 0c1.04 3.13 1.01 4.82 0.688 8.06-0.0786 0.878-0.157 1.76-0.238 2.66-0.449 2.28-0.449 2.28-2.45 4.28-0.121 0.706-0.242 1.41-0.367 2.14-0.877 3.96-2.75 7.11-4.76 10.6-0.407 0.713-0.813 1.43-1.23 2.16-3.14 5.41-6.53 10.4-10.6 15.1l-2.19 2.52c-23.6 26.6-53.3 41.7-88.8 44.5-2.73 0.119-5.45 0.141-8.19 0.125-0.672 0.00387-1.34 0.00773-2.04 0.0117-4.03-0.00784-7.82-0.362-11.8-1.14 0.25-2.38 0.25-2.38 1-5 2-1.12 2-1.12 4-2l1-3c3.49-1.75 6.07-3 10-3v-2l3-0.812c2.83-0.802 5.57-1.75 8.31-2.81 3.69-1.38 3.69-1.38 5.69-1.38v-2h5l0.562-1.75c1.82-2.85 3.8-3.75 6.78-5.22 1.99-1.07 1.99-1.07 3.66-4.03 1.67-0.333 3.33-0.667 5-1l2-3h3l1-5c0.99-0.33 1.98-0.66 3-1v-2.81-6.19c-0.311-1.67-0.641-3.34-1-5-0.606-0.182-1.21-0.364-1.84-0.551-1.76-0.529-3.53-1.06-5.29-1.59-1.87-0.556-3.74-1.1-5.62-1.62-0.866-0.244-1.73-0.487-2.62-0.738-0.791-0.217-1.58-0.433-2.4-0.656-2.23-0.844-2.23-0.844-4.05-2.31-2.97-2.09-6.12-2.74-9.61-3.53-0.711-0.169-1.42-0.338-2.15-0.511-1.45-0.343-2.9-0.681-4.35-1.02-1.83-0.42-3.65-0.854-5.47-1.29-14.1-3.33-27.9-6.35-42.4-6.43-0.934-0.0206-1.87-0.0412-2.83-0.0625-8.57-0.0476-17 1.66-24.4 6.31-1.64 1.69-3.14 3.44-4.61 5.28-1.37 1.69-2.83 3.21-4.39 4.72 2.48-7.45 5.81-11.7 12.7-15.3 17.6-8.03 38.1-5.1 56.2-0.188 35.9 9.42 73.3 6.3 106-10.1 1.13-0.549 2.26-1.1 3.43-1.66 1.03-0.512 2.05-1.02 3.11-1.55 3.56-1.29 6.38-1.34 10.1-1.14z" fill="#EE6411"/>
<path transform="translate(330,173)" d="m0 0h3l2 6h2l2-4c1.12 4.47 1.14 8.86 1.13 13.4 0.00227 0.847 0.00453 1.69 0.00687 2.57 0.00633 2.84 0.00551 5.68 0.00469 8.51 0.00299 2.04 0.00639 4.07 0.0102 6.11 0.00884 5.53 0.0112 11.1 0.0118 16.6 7.11e-4 3.46 0.00285 6.91 0.0055 10.4 0.00925 12.1 0.0133 24.1 0.0125 36.2-6.01e-4 11.2 0.00995 22.5 0.0257 33.7 0.0131 9.65 0.0184 19.3 0.0178 28.9-2.55e-4 5.76 0.00259 11.5 0.0132 17.3 0.00969 5.42 0.00975 10.8 0.00248 16.3-0.00104 1.99 0.00131 3.97 0.00736 5.96 0.00775 2.72 0.00306 5.44-0.00463 8.15 0.00514 0.78 0.0103 1.56 0.0156 2.36-0.0498 8.01-1.08 15.2-6.26 21.6-6.26 5.77-11.5 7.49-19.9 7.3-4.3-0.429-8.09-1.62-12.1-3.3l1-2h2c-2.68-3.57-5.43-6.32-9-9 2.65-1.46 3.89-2 7-2l2-3c1.88-0.562 1.88-0.562 4-1 2.45-0.938 3.68-1.45 5-3.75l1-2.25c1.32-2.01 2.66-4.01 4-6l1-2-2-1c0.489-0.86 0.489-0.86 0.988-1.74 2.54-5.67 1.35-14.3 0.0117-20.3l-2-2c0.99-0.33 1.98-0.66 3-1-0.0722-0.82-0.144-1.64-0.219-2.48l-0.281-3.27-0.281-3.23c-0.276-3.81-0.292-6.77 0.781-10.5 1.13-4.02 1.4-6.89 0.438-10.9-0.565-3.39 0.0451-6.23 0.562-9.62 0.159-4.94-0.105-9.55-0.879-14.4-0.121-2.57-0.121-2.57 0.344-6.25 0.92-7.6 0.683-15.3 0.66-22.9-5.54e-4 -0.828-0.00111-1.66-0.00168-2.51-0.0103-13.2-0.291-26.3-0.855-39.5-0.0485-1.19-0.097-2.39-0.147-3.62-0.0471-1.04-0.0943-2.08-0.143-3.16 0.0217-2.58 0.0217-2.58 1.02-5.58 1.05-4.95 1.05-4.95 0.422-9.85-0.953-4.86 1.97-10 4.27-14.2 0.433-0.639 0.866-1.28 1.31-1.94l3 2c1.86-1.48 1.86-1.48 3-4-0.524-2.17-1.31-4.07-2.24-6.1-0.762-1.9-0.762-1.9-0.762-4.9z" fill="#1B1E1E"/>
<path transform="translate(1090,199)" d="m0 0 3.19 0.438c6.83 1.37 12.7 4.38 18.8 7.56v2l3.38 0.312c1.2 0.227 2.39 0.454 3.62 0.688l2 3c2.33 0.685 4.66 1.35 7 2 6.56 3.12 6.56 3.12 8 6l2.12 0.375c4.61 1 8.52 3.27 11.9 6.62l-2 1v2c-9.34 3.68-18.6 5.82-28.5 7.56-12.6 2.22-24.5 4.93-36.5 9.34-3.02 1.1-6.05 2.18-9.08 3.24-10.9 3.84-21.6 7.64-31.9 12.9-0.929 0.464-1.86 0.928-2.82 1.41-1.66 0.831-3.31 1.67-4.96 2.52-2.37 1.15-4.77 2.13-7.22 3.08l-2-5-3 1c-0.392-2.06-0.763-4.12-1.12-6.19-0.313-1.72-0.313-1.72-0.633-3.48-0.258-3.55 0.172-5.2 1.76-8.33 0.478-1.02 0.478-1.02 0.965-2.06 1.88-3.74 3.87-7.35 6.04-10.9 1.54-3.02 3.02-6.05 4.44-9.12 1.56-2.88 3.06-4.78 5.56-6.88h2v-2c0.99-0.33 1.98-0.66 3-1l2-3c0.99-0.33 1.98-0.66 3-1l1-3c0.928-0.144 1.86-0.289 2.81-0.438 3.19-0.484 3.19-0.484 6.19-1.56v-3h2v-2c1.2-0.289 2.39-0.578 3.62-0.875 2.56-0.635 5-1.34 7.5-2.19 6.29-2.05 11.4-1.88 17.9-0.938z" fill="#FABA08"/>
<path transform="translate(1085 189)" d="m0 0c0.888-0.00387 1.78-0.00773 2.69-0.0117 1.28 0.00193 1.28 0.00193 2.58 0.00391 0.765 0.00113 1.53 0.00226 2.32 0.00342 2.03 0.129 2.03 0.129 5.03 1.13v2c1.01-0.433 2.02-0.866 3.06-1.31 3.94-0.688 3.94-0.688 5.86 0.258 1.2 0.893 2.37 1.82 3.5 2.79 1.67 1.48 1.67 1.48 4.58 2.26v2l5 1v3l3.25 0.312c3.79 0.694 4.88 1.37 7.75 3.69 1.98 0.727 3.98 1.4 6 2 0.99 0.33 1.98 0.66 3 1v3c0.99 0.33 1.98 0.66 3 1 2.69 1.44 2.69 1.44 5 3v2c0.99 0.33 1.98 0.66 3 1l-1 1 2.75-0.25c3.25 0.25 3.25 0.25 5.62 2.25 0.804 0.99 0.804 0.99 1.62 2-1.41 1.04-2.82 2.05-4.25 3.06-0.789 0.568-1.58 1.14-2.39 1.72-2.36 1.21-2.36 1.21-4.66 0.898-0.562-0.226-1.12-0.451-1.7-0.684l1-2-1.75-0.812c-2.25-1.19-2.25-1.19-4.06-2.62-2.27-1.74-2.27-1.74-5.56-3-3.62-1.56-3.62-1.56-6.62-3.62-3.27-2.11-6.27-2.91-10-3.94l-1-2c-2.31-0.731-4.65-1.4-7-2v-2l-2.69-0.812c-3.31-1.19-3.31-1.19-5.62-2.75-3.19-1.71-5.68-1.91-9.24-2.18-2.51-0.265-4.81-0.824-7.26-1.45-5.89-1.25-11.4-0.392-17.2 1.19l-3 2c-3.19 0.125-3.19 0.125-6 0v2h-2v3h-2l-1 2c-1.94 0.688-1.94 0.688-4 1l-2-1-0.312 1.94-0.688 2.06c-0.99 0.33-1.98 0.66-3 1l-2 3h-3v2c-1.51 1.22-3.03 2.43-4.54 3.65-2.02 1.87-2.63 3.75-3.46 6.35-1.38 2.87-2.79 5.65-4.44 8.38-5.05 8.49-8.54 15.6-6.56 25.6l1 2h3c1.69 2 1.69 2 3 4 0.594-0.375 1.19-0.75 1.8-1.14 11.7-7.24 23.7-12.2 37.2-14.9-2.82 2.99-5.71 5.23-9.12 7.5-10.3 7.39-16.9 17-21.9 28.5-0.339 0.777-0.678 1.55-1.03 2.36-1.48 3.64-2.34 6.71-1.97 10.6l2.88-2.5c2.88-2.5 2.88-2.5 5.12-2.5-1.1 3.3-1.78 3.83-4.44 5.88-3.04 2.49-4.31 4.35-5.56 8.12-3 2-3 2-6 2v3c-0.641 0.0606-1.28 0.121-1.94 0.184-8.57 0.103-8.57 0.103-16.1 2.82-4.53 0.233-4.53 0.233-7-1-1.81-5.09-2.39-9.88-2.62-15.2-0.0365-0.753-0.073-1.51-0.111-2.28-0.0987-2.16-0.183-4.31-0.264-6.47-0.0425-0.94-0.0851-1.88-0.129-2.85-0.458-19.3 3.11-38.4 10.7-56.1 0.421-0.985 0.421-0.985 0.85-1.99 1.69-3.71 3.51-6.39 6.59-9.07l1 2c3.84-1.46 5.15-3.39 7-7l1-3c0.99-0.33 1.98-0.66 3-1l2-3c0.99-0.33 1.98-0.66 3-1v-2c2.05-2.46 4.12-3.68 7-5l3.12-1.62c2.88-1.38 2.88-1.38 4.88-1.38l1-2c2.9-1.37 4.76-2 8-2v-3c1.94-0.562 1.94-0.562 4-1l1 1 1-2h2l1-3c6.5-0.83 12.8-1.15 19.4-1.12z" fill="#F6A306"/>
<path transform="translate(167,236)" d="m0 0 5 1v2c0.99 0.33 1.98 0.66 3 1-0.639 0.103-1.28 0.206-1.94 0.312l-2.06 0.688-1 3h2v2h2c1.62 1.19 1.62 1.19 3 3 0.188 2.69 0.188 2.69 0 5h-2c-1.29-1.53-1.29-1.53-2.62-3.5-0.669-0.975-0.669-0.975-1.35-1.97-0.338-0.505-0.675-1.01-1.02-1.53-0.00239 0.74-0.00478 1.48-0.00724 2.24-0.0592 18-0.135 36-0.228 54.1-0.0449 8.71-0.0843 17.4-0.111 26.1-0.023 7.6-0.0564 15.2-0.102 22.8-0.0239 4.02-0.0426 8.04-0.0489 12.1-0.00607 3.79-0.0261 7.58-0.0567 11.4-0.00876 1.39-0.0125 2.77-0.0107 4.16 0.00795 9.08-0.449 15.7-5.62 23.4-5.58 5.46-10 7-17.9 7.19-5.39-0.145-9.26-0.767-13.9-3.44 0.495-0.598 0.99-1.2 1.5-1.81 1.78-2.16 1.78-2.16 1.5-5.19l-4-1-1-6-3 2 1-4h2l1-3 3 3 0.375-2.44 0.625-2.56 2-1v-2c-1.74-0.874-1.74-0.874-4-1-2.75 1.85-2.75 1.85-5 4-1.12-3.35-0.672-4.64 0-8l-1-3c-0.0814-1.63-0.108-3.26-0.0977-4.89 0.00322-0.938 0.00645-1.88 0.00977-2.84 0.0126-1.46 0.0126-1.46 0.0254-2.96 0.00451-0.988 0.00902-1.98 0.0137-2.99 0.0118-2.44 0.0282-4.88 0.0488-7.32l2-1 1 3 3-10h2v-4c-0.99-0.33-1.98-0.66-3-1l1-2h2l1-2 3 2c0.325 2.14 0.325 2.14 0.258 4.75-0.0213 1.4-0.0213 1.4-0.043 2.84-0.0296 0.98-0.0593 1.96-0.0898 2.97-0.0432 1.94-0.0824 3.88-0.117 5.82-0.0243 0.862-0.0487 1.72-0.0737 2.61-0.163 2.01-0.163 2.01 1.07 3.01 0.184 1.41 0.322 2.83 0.438 4.25 0.275 2.85 0.595 4.83 1.69 7.5 1.1 2.83 0.532 4.33-0.125 7.25 0.377 2.73 0.377 2.73 1 5l2-2 3 2v3h3c0.861-3.92 0.859-6.95 0.247-10.9-0.509-4.37-0.388-8.77-0.38-13.2-0.00146-1.07-0.00291-2.15-0.00441-3.25-0.00224-3.48 0.00402-6.97 0.0122-10.5 0.00188-1.19 0.00377-2.37 0.00571-3.59 0.0264-14.1 0.0609-28.3 0.384-42.4 0.0314-1.41 0.0587-2.82 0.0814-4.23 0.142-8.26 1.13-15.8 3.01-23.8 0.846-4.15 0.886-8.01 0.644-12.2-0.282-5.14-0.203-8.66 3-12.9l3 3c-0.248-0.701-0.495-1.4-0.75-2.12-0.353-4.06 1.4-5.62 3.75-8.88 1.11-2.3 2.05-4.63 3-7z" fill="#1B1E1F"/>
<path transform="translate(1125 338)" d="m0 0c2.41 0.718 4.78 1.27 7.23 1.79 0.812 0.17 1.62 0.34 2.46 0.516 1.63 0.335 3.26 0.662 4.89 0.978 0.751 0.155 1.5 0.311 2.28 0.471 0.675 0.133 1.35 0.266 2.04 0.402 2.26 0.813 3.36 1.77 4.83 3.66-0.188 2.62-0.188 2.62-1 5l-2 1 2 4-4 1 1 2c-0.762 0.364-0.762 0.364-1.54 0.734-3.32 1.61-6.37 3.2-9.4 5.33-4.59 2.91-9.58 4.94-15.1 4.94v2c-0.748 0.133-1.5 0.266-2.27 0.402-0.985 0.177-1.97 0.353-2.98 0.535-0.975 0.174-1.95 0.348-2.95 0.527-2.3 0.439-4.54 0.949-6.8 1.54-5.46 1.14-11.6 1.92-17.1 0.43-2.12-0.649-2.12-0.649-4.91 0.57l-2-1c-3.45-0.133-6.6-0.0752-10 0.562-3.53 0.515-6.49-0.0327-10-0.562l-3 1v-2c-3.68-0.204-5.78 0.254-9 2-0.617-12.7 0.466-23.2 9.06-33 0.639-0.668 1.28-1.34 1.94-2.02 0.715-0.812 0.715-0.812 1.45-1.64 1.99-1.74 3.96-2.53 6.43-3.48 0.843-0.333 1.69-0.665 2.55-1.01 16.7-5.64 39.4-2.27 55.8 3.32z" fill="#F2900A"/>
<path transform="translate(1225,253)" d="m0 0c-0.312 1.88-0.312 1.88-1 4-3 2-3 2-5.81 2.88-3.54 1.25-6.21 2.86-9.19 5.12-0.0627 2.17-0.0627 2.17 0.562 4.94 0.438 3.06 0.438 3.06-0.562 6.06-0.358 2.33-0.688 4.66-1 7-0.921 6.79-0.921 6.79-1.81 9.12-0.304 3.04 1.95 4.58 3.81 6.88 1.15 3.67 1.29 5.3-0.188 8.88-0.598 0.701-1.2 1.4-1.81 2.12h-4v2c-19.7 0.505-39-0.356-58-6 0.0722-0.606 0.144-1.21 0.219-1.84 1.79-11.9 1.79-11.9-1.22-23.2-0.99-0.33-1.98-0.66-3-1l2-5-3-2 1-3 2 1c7.78-0.153 15.4-1.34 23.1-2.59 3.37-0.476 6.51-0.568 9.9-0.41v-2c0.927-0.133 1.85-0.266 2.81-0.402 1.2-0.177 2.4-0.353 3.63-0.535 1.19-0.174 2.39-0.348 3.62-0.527 2.82-0.225 2.82-0.225 3.94-1.54 1.67-0.0406 3.33-0.0427 5 0v-2h9v-2c3.62-1.32 6.1-2 10-2 0.186-0.959 0.186-0.959 0.375-1.94l0.625-2.06c3.07-1.53 5.7-0.55 9 0z" fill="#F6A206"/>
<path transform="translate(1264,112)" d="m0 0 1 2c-2.45 5.73-2.45 5.73-5 7l-0.75 2.25c-1.37 3-2.98 4.41-5.62 6.34-1.8 1.46-1.8 1.46-3.53 3.85-14.2 17.3-44.8 20-65.5 22.1-7.55 0.644-15.1 0.648-22.7 0.46 0.604-3.53 0.925-3.94 3.92-6.37 1.27-0.851 2.54-1.69 3.83-2.51 1.02-0.661 1.02-0.661 2.06-1.33 19.1-12.1 42.8-19 65.2-21.8v-2c-27 2.63-56.8 8.4-79 25l-2-1 2-1.81c2.34-2.06 2.34-2.06 2-5.19 1.61-1.81 3.22-3.37 5-5 0.5-0.527 1-1.05 1.52-1.6 18.8-18.6 51.1-21 76-22.1 1.07-0.0599 2.14-0.12 3.25-0.182 6.46-0.288 12-0.00845 18.2 1.87z" fill="#007B31"/>
<path transform="translate(1317,322)" d="m0 0c2.31 0.33 4.62 0.66 7 1 0.0929 9.12 0.164 18.2 0.207 27.4 0.0208 4.24 0.049 8.47 0.0945 12.7 0.0436 4.09 0.0674 8.18 0.0778 12.3 0.00736 1.56 0.0217 3.11 0.0434 4.67 0.125 9.33 0.0599 16.4-6.03 24-6.19 5.18-12.9 7.63-21 7.38-4.39-0.693-8.35-2.5-12.4-4.37 0.215-0.603 0.431-1.21 0.652-1.83 0.115-0.717 0.229-1.43 0.348-2.17-2.35-2.77-2.35-2.77-5-5 1.33-2.67 2.67-5.33 4-8 0.99 0.33 1.98 0.66 3 1 0.783-1.79 0.783-1.79 1-4-1.35-2.25-1.35-2.25-3-4l-1 3c-1.46-2.91-0.689-4.87 0-8 0.667-1.33 1.33-2.67 2-4 1.13-4.61 0.837-8.35 0-13h-2v-8h2l0.312-2.31c0.731-2.86 1.46-3.84 3.69-5.69v2h2l2 3h1l1 5 1.88-0.625 2.12-0.375 2 2c0.474-0.969 0.949-1.94 1.44-2.94 1.56-3.06 1.56-3.06 2.56-4.06 0.21-1.58 0.369-3.16 0.5-4.75 0.481-5.19 0.935-9.63 3.5-14.2h3c0.99-2.64 1.98-5.28 3-8z" fill="#1C1E1F"/>
<path transform="translate(1237,232)" d="m0 0h2c2.64 5.7 4.96 11.4 7.05 17.4 0.826 2.3 1.72 4.56 2.63 6.82 1.44 3.89 2.07 7.68 2.31 11.8 0.0877 1.07 0.175 2.13 0.266 3.23 0.42 8.76-0.87 14.8-6.27 21.8-2.79 3-5.74 5.54-9 8-0.888 0.706-0.888 0.706-1.79 1.43-4.36 3.11-9.16 4.75-14.2 6.39-0.665 0.219-1.33 0.439-2.01 0.665-4.8 1.46-8.97 1.72-14 1.52l1.88-0.625c2.38-1.28 2.38-1.28 3.5-4.19 0.718-3.66 0.406-4.96-1.38-8.19l-1.69-1.75c-2.72-4.67-0.434-11.2 0.688-16.2l0.5-2.69c0.5-2.31 0.5-2.31 1.5-4.31 0.04-2 0.0435-4 0-6l-2-1c5.65-4.77 9.75-7.34 17-9v-2h3v-2h2c0.193-0.782 0.387-1.56 0.586-2.37 0.26-1.01 0.521-2.02 0.789-3.07 0.383-1.51 0.383-1.51 0.773-3.06 0.852-2.5 0.852-2.5 2.85-3.5l2 1 1-10z" fill="#EE6411"/>
<path transform="translate(1467,201)" d="m0 0c2.35 2.12 3.53 3.82 4.54 6.81 0.251 0.741 0.502 1.48 0.761 2.24 0.253 0.787 0.506 1.57 0.766 2.38 0.395 1.22 0.395 1.22 0.797 2.46 7.13 22.6 5.06 45.1-5.42 66.3-7.77 14.2-21.3 25.9-36.4 31.8h-2l4 7c-0.99-0.33-1.98-0.66-3-1v-2l-2.75 1.12c-3.25 0.875-3.25 0.875-5.62 0l-1.62-1.12 1-6 5-1 1-3c3.56-1.19 3.56-1.19 7-2 0.144-0.784 0.289-1.57 0.438-2.38 0.562-2.62 0.562-2.62 1.56-4.62h-5l-1-2c0.938-2.12 0.938-2.12 2-4h5l-0.438-2.5c0.581-4.65 2.71-6.49 5.91-9.77 1.75-1.6 1.75-1.6 1.53-3.73l2-2c0.511-1.38 0.962-2.78 1.38-4.19 0.956-3.06 1.99-5.57 3.75-8.25 2.21-3.6 2.33-6.91 2.61-11.1 0.507-4.77 1.76-9.12 5.39-12.4l1.88-1.06 1-1-4-4c2-4 2-4 3.06-5.94 1.05-2.08 1.05-2.08 1.38-4.62 0.634-2.75 1.34-3.75 3.56-5.44h2l-1.56-2.44c-1.84-4.56-1.31-7.83-0.438-12.6z" fill="#1B1E1E"/>
<path transform="translate(1090,199)" d="m0 0 3.19 0.438c6.83 1.37 12.7 4.38 18.8 7.56v2l3.38 0.312c1.2 0.227 2.39 0.454 3.62 0.688l2 3c2.33 0.685 4.66 1.35 7 2 6.56 3.12 6.56 3.12 8 6l2.12 0.375c4.61 1 8.52 3.27 11.9 6.62l-2 1v2c-4.32 1.39-7.56 0.586-11.8-0.527-2.46-0.614-2.46-0.614-6.18-0.473v-2c-0.687-0.193-1.37-0.387-2.08-0.586-0.901-0.26-1.8-0.521-2.73-0.789-0.893-0.255-1.79-0.51-2.71-0.773-2.48-0.852-2.48-0.852-5.48-2.85l-3.62-0.75c-4.45-1.01-7.58-3.2-11.2-5.91-5.29-3.26-12-2.59-18-2.65-0.96-0.029-1.92-0.058-2.91-0.0879-6.6-0.0586-10.6 1.1-16.3 4.4h-2l-1 2c-5.42 3-5.42 3-8 3v3c-0.99 0.33-1.98 0.66-3 1l-1.94 2.44c-2.06 2.56-2.06 2.56-4.19 3.5-2.17 0.974-2.17 0.974-3 3.81l-0.875 3.25-1.06 3.12c-1.66 4.38-1.66 4.38-1.38 8.88 0.438 2 0.438 2-0.375 4.19-1.19 1.81-1.19 1.81-3.19 2.81l2 5c-3.13 3.39-5.57 5.61-10 7l-2-5-3 1c-0.392-2.06-0.763-4.12-1.12-6.19-0.313-1.72-0.313-1.72-0.633-3.48-0.258-3.55 0.172-5.2 1.76-8.33 0.478-1.02 0.478-1.02 0.965-2.06 1.88-3.74 3.87-7.35 6.04-10.9 1.54-3.02 3.02-6.05 4.44-9.12 1.56-2.88 3.06-4.78 5.56-6.88h2v-2c0.99-0.33 1.98-0.66 3-1l2-3c0.99-0.33 1.98-0.66 3-1l1-3c0.928-0.144 1.86-0.289 2.81-0.438 3.19-0.484 3.19-0.484 6.19-1.56v-3h2v-2c1.2-0.289 2.39-0.578 3.62-0.875 2.56-0.635 5-1.34 7.5-2.19 6.29-2.05 11.4-1.88 17.9-0.938z" fill="#F9AE0E"/>
<path transform="translate(1068,255)" d="m0 0c-0.713 0.508-1.43 1.02-2.16 1.54-2.96 2.13-5.91 4.29-8.84 6.46-0.663 0.489-1.33 0.977-2.01 1.48-10.4 8.25-17 21.1-21 33.5-0.255 2.84-0.255 2.84 0 5l2.88-2.5c2.88-2.5 2.88-2.5 5.12-2.5-1.1 3.3-1.78 3.83-4.44 5.88-3.04 2.49-4.31 4.35-5.56 8.12-3 2-3 2-6 2v3c-0.641 0.0606-1.28 0.121-1.94 0.184-8.57 0.103-8.57 0.103-16.1 2.82-4.53 0.233-4.53 0.233-7-1-1.81-5.09-2.39-9.88-2.62-15.2-0.0372-0.746-0.0744-1.49-0.113-2.26-0.434-9.26-0.382-18.3 0.738-27.5l3 2c0.99 0.33 1.98 0.66 3 1l1 6 4-1-2 5c4.4-2.68 7.81-5.69 11.4-9.38 1.75-1.76 3.5-3.29 5.61-4.62h2v-2c9.7-6.72 20.7-11.6 32-15 0.674-0.218 1.35-0.436 2.04-0.66 4.71-1.47 4.71-1.47 6.96-0.34z" fill="#F69A08"/>
<path transform="translate(1321,203)" d="m0 0c1.6 1.06 1.6 1.06 3 3 0.399 3.13 0.399 3.13 0.432 7.04 0.0102 0.712 0.0204 1.42 0.0309 2.16 0.0302 2.35 0.0394 4.71 0.0485 7.06 0.0168 1.63 0.035 3.26 0.0544 4.9 0.0475 4.3 0.0773 8.59 0.103 12.9 0.0298 4.38 0.0763 8.77 0.121 13.2 0.0861 8.6 0.153 17.2 0.209 25.8 9.2 0.0465 18.4 0.082 27.6 0.104 4.27 0.0104 8.54 0.0245 12.8 0.0473 4.13 0.0219 8.26 0.0337 12.4 0.0389 1.57 0.00367 3.14 0.0108 4.7 0.0217 16.9 0.113 29.4-1.4 41.9-13.5 0.536-0.557 1.07-1.11 1.62-1.69v3h-2l-0.812 2.44c-0.392 0.846-0.784 1.69-1.19 2.56l-3 1v2h-2v2c-3.09 1.76-4.23 2-8 2v2c-5.45 1.54-10.4 2.29-16.1 2.23-1.14 4.38e-4 -1.14 4.38e-4 -2.31 8.85e-4 -2.49-0.00138-4.98-0.0169-7.47-0.0326-1.74-0.00373-3.47-0.00658-5.21-0.00858-4.55-0.0076-9.1-0.0272-13.7-0.0494-4.65-0.0205-9.3-0.0296-14-0.0397-9.11-0.0214-18.2-0.0555-27.3-0.0977l-1-14 0.125 6.88c0.0703 3.87 0.0703 3.87-0.125 7.12l-2 2c-0.167 2.58-0.167 2.58 0 5-2.35-0.599-4.69-1.27-7-2l-1-2 2-1.56c2.67-3.25 2.39-5.34 2-9.44l-1-1c-0.261-1.81-0.46-3.62-0.625-5.44-0.0954-0.989-0.191-1.98-0.289-3-0.0859-2.57-0.0859-2.57 0.914-4.57h-2l0.125 2.81c-0.125 3.19-0.125 3.19-2.12 6.19h2c0.25 7.62 0.25 7.62-2 11l-3-9 2-1v-3l-5-1c-0.633-7.87-1.11-15.7-1.19-23.6-0.0142-1.29-0.0284-2.58-0.043-3.91 0.221-3.32 0.664-5.54 2.23-8.46 2.12-0.812 2.12-0.812 4-1v-5h-2c-0.215-4.52 0.554-7.75 2-12l-0.0625-2.75 0.0625-2.25 3-2 1 3-1 2h2v-7c2.08-0.553 3.84-1 6-1z" fill="#1B1E1E"/>
<path transform="translate(1155,166)" d="m0 0c0.669 0.416 1.34 0.833 2.03 1.26 1.97 1.3 1.97 1.3 4.97 3.74v3c1.19 1.49 2.38 2.97 3.63 4.4 4.1 4.78 6.62 9.35 7.37 15.6-0.375 3.5-0.375 3.5-1 6-4.16 0.0816-7.95-0.0175-12-1v-2h-4v-2l-2.38-0.438c-2.62-0.562-2.62-0.562-4.62-1.56v-2l-1.94-0.375-2.06-0.625-1-2c-0.866-0.289-1.73-0.578-2.62-0.875-2.66-0.887-4.57-1.73-6.94-3.12-3.21-2.01-3.21-2.01-6.06-2.94-3.14-1.4-4.96-3.64-7.38-6.06-2.47-1.16-2.47-1.16-5-2l-2.19-1.62c-4.19-2.05-8.23-1.62-12.8-1.38v-3l-1 1c-1.98 0.0209-3.96-0.0094-5.94-0.0625-5.94-0.059-11.3 0.609-17.1 2.06 15.1-15.1 61-15.2 78-4z" fill="#F18506"/>
<path transform="translate(1225,253)" d="m0 0c-0.312 1.88-0.312 1.88-1 4-3 2-3 2-5.81 2.88-3.54 1.25-6.21 2.86-9.19 5.12-0.0627 2.17-0.0627 2.17 0.562 4.94 0.438 3.06 0.438 3.06-0.562 6.06-0.358 2.33-0.688 4.66-1 7-0.921 6.79-0.921 6.79-1.81 9.12-0.304 3.04 1.95 4.58 3.81 6.88 1.15 3.67 1.29 5.3-0.188 8.88-0.598 0.701-1.2 1.4-1.81 2.12h-4v2h-24c-2.39-8.36-5.49-19.8-2.06-28.3 1.14-2.89 1.63-5.61 2.06-8.69-0.99-0.33-1.98-0.66-3-1v-2c5.62-2.18 11.2-4.12 17.1-5.5 4.88-1.15 9.37-2.74 14-4.73 1.96-0.77 1.96-0.77 3.96-0.77v-2c-2.31 0.33-4.62 0.66-7 1 3.44-2.3 5.94-2.54 10-3 0.186-0.959 0.186-0.959 0.375-1.94l0.625-2.06c3.07-1.53 5.7-0.55 9 0z" fill="#F28606"/>
<path transform="translate(1101,166)" d="m0 0c1.68 0.286 3.34 0.618 5 1l-3 2h10v2c2.49 1.3 4.93 2.36 7.56 3.38 3.53 1.67 4.23 2.64 6.44 5.62 1.99 0.706 3.99 1.37 6 2 2 1.33 4 2.67 6 4 3.22 1.24 3.22 1.24 6 2v2l4 1v2c1.05 0.268 2.1 0.536 3.19 0.812 3.81 1.19 3.81 1.19 6.12 2.75 4.03 2.16 8.18 2.18 12.7 2.44l1-5c2.32 2.32 2.34 2.85 2.44 6-0.0841 5.75-2.59 10.1-5.44 15-8.14-0.348-8.14-0.348-11.6-2.94-1.44-2.06-1.44-2.06-1.44-4.06l-1.69 0.688c-2.31 0.312-2.31 0.312-5-0.875-2.31-1.81-2.31-1.81-3.12-4l-0.188-1.81-7-2v-2h-2l-1 2c-3.88-2.62-3.88-2.62-5-6-2.38-1.18-2.38-1.18-5-2-3-1-3-1-4.36-2.43-2.09-2.01-4.13-2.75-6.82-3.76-0.901-0.344-1.8-0.688-2.73-1.04-0.687-0.254-1.37-0.508-2.08-0.77v-2c-0.753 0.0348-1.51 0.0696-2.28 0.105-8.03 0.205-15.1-0.777-22.9-2.55-4.34-0.634-7.51-0.244-11.8 0.441h-3l-2 2-1.75-1.56c-2.13-1.7-2.13-1.7-4.5-1.12l-1.75 0.688-1 4c-0.99-0.33-1.98-0.66-3-1h2c0.0387-1.11 0.0387-1.11 0.0781-2.24 1.12-3.35 2.64-4.24 5.68-5.89 0.657-0.327 1.31-0.655 1.99-0.992 0.676-0.345 1.35-0.691 2.05-1.05 9.69-4.76 19-6.22 29.7-5.84 1.23 0.00387 1.23 0.00387 2.48 0.00781l1-1z" fill="#EF8E0A"/>
<path transform="translate(526,279)" d="m0 0c0.682 8.06 0.511 14.1-4.14 20.9-3.61 4.08-7.74 6.39-12.9 8.1-2.18 0.105-4.35 0.149-6.53 0.161-0.659 0.00496-1.32 0.00993-2 0.015-2.18 0.0146-4.36 0.0214-6.54 0.0269-1.52 0.00576-3.04 0.0115-4.56 0.0173-3.19 0.0105-6.39 0.0164-9.58 0.0198-4.07 0.00547-8.14 0.0295-12.2 0.058-3.15 0.0187-6.29 0.0238-9.44 0.0254-1.5 0.00301-3 0.011-4.5 0.0242-8.02 0.0656-15.2-0.1-22.6-3.35-0.99-0.33-1.98-0.66-3-1v2c-6.33 0.345-11.1-0.707-17-3v-4c8.82-3.89 17.9-3.28 27.3-3.11 4.7 0.0837 9.39 0.116 14.1 0.139 1.38 0.00718 1.38 0.00718 2.79 0.0145 10.2 0.0171 20.3-0.814 30.5-1.85 3.45-0.278 6.86-0.252 10.3-0.188v-2c1.68-0.0735 1.68-0.0735 3.39-0.148 1.47-0.075 2.95-0.151 4.42-0.227 0.738-0.0309 1.48-0.0619 2.24-0.0938 3.77-0.205 5.75-0.396 8.95-2.53l2.56-0.438c2.79-0.351 2.79-0.351 4.44-3.56v-3c2.56-3 2.56-3 4-3z" fill="#191C1D"/>
<path transform="translate(920,242)" d="m0 0h2l2 13h1c0.0935 18.1 0.164 36.2 0.207 54.3 0.0206 8.41 0.0487 16.8 0.0945 25.2 0.0399 7.33 0.0657 14.7 0.0746 22 0.0052 3.88 0.0174 7.76 0.0466 11.6 0.0273 3.66 0.0355 7.31 0.0295 11 0.00162 1.97 0.0231 3.95 0.0452 5.92-0.0373 8.06-0.926 13.5-6.1 19.9-6.83 5.71-13.6 7.49-22.4 7.01 0.99-0.33 1.98-0.66 3-1v-7l4-1c-0.0232-0.687-0.0464-1.37-0.0703-2.08-0.0271-1.35-0.0271-1.35-0.0547-2.73-0.0348-1.34-0.0348-1.34-0.0703-2.71 0.195-2.48 0.195-2.48 2.2-5.48h2v-2h2l2-5h2c0.798-4.39 1.02-8.47 0.938-12.9-0.0574-5.07 0.574-9.22 2.06-14.1h2c0.958-18.5 1.04-37 0.625-55.6-0.0214-0.999-0.0428-2-0.0649-3.03-0.312-14.1-0.863-28.3-1.56-42.4h-1v-6h2l1-7z" fill="#1A1D1D"/>
<path transform="translate(518,278)" d="m0 0 2 2h4v9l-2-3-2 3c-2.31 0.731-4.65 1.4-7 2l-1 1c-2.31 0.262-4.62 0.46-6.94 0.625-1.27 0.0954-2.53 0.191-3.84 0.289-3.22 0.0859-3.22 0.0859-5.22-0.914v2c-3.06 0.314-6.12 0.627-9.19 0.938-0.845 0.087-1.69 0.174-2.56 0.264-2.75 0.278-5.5 0.539-8.25 0.799-0.934 0.097-1.87 0.194-2.83 0.294-6.77 0.629-13.5 0.759-20.3 0.698-0.898-0.00779-1.8-0.0156-2.72-0.0236-3.73-0.0368-7.46-0.0788-11.2-0.14-14.3-0.353-14.3-0.353-28 3.17v2c5.16 1.93 9.42 3.27 15 3l2 1v-2c1.33 0.333 2.67 0.667 4 1 0.706 0.177 1.41 0.353 2.14 0.535l5.86 1.46v1c-9.9 0.33-19.8 0.66-30 1l-1 45-2-1-1 2h-2v5l-3 1c-3-5.62-3-5.62-3-9h-2c-2-3-2-3-1.69-5.38l0.688-2.62 1-5-2-1c0.75-2.44 0.75-2.44 2-5 2.12-0.812 2.12-0.812 4-1l-1.44-2.88c-0.854-1.71-1.71-3.42-2.56-5.12h2c-0.33-5.02-0.33-5.02-3-9-0.398-1.99-0.738-3.99-1-6h13v-5h-5c-0.812-1.62-0.812-1.62-1-4 2.66-4.19 2.66-4.19 5-6 3.31-0.375 3.31-0.375 6 0v-2c6.89-1.37 13.6-0.884 20.6-0.562 15.4 1.51 15.4 1.51 30.4-0.438 1.89-0.0597 3.78-0.0607 5.66-0.0273 1.12 0.0122 2.25 0.0245 3.4 0.0371 2.35 0.0348 4.7 0.0738 7.05 0.117 5.91 0.0573 11.2-0.166 17-1.66 3.49-0.859 7.05-0.873 10.6-1.03 0.754-0.146 1.51-0.291 2.29-0.441l2-3c2.62-0.188 2.62-0.188 5 0l-2-5 4-2z" fill="#1B1E1E"/>
<path transform="translate(1323,325)" d="m0 0h1c0.0929 8.86 0.164 17.7 0.207 26.6 0.0208 4.11 0.049 8.23 0.0945 12.3 0.0437 3.97 0.0674 7.95 0.0778 11.9 0.00736 1.51 0.0217 3.02 0.0434 4.54 0.127 9.21-0.0213 16.2-6.03 23.6-6.83 5.71-13.6 7.49-22.4 7.01-0.812-2.12-0.812-2.12-1-5 1.44-2.3 3.11-4.02 5-6l-5-2c0.375-2.44 0.375-2.44 1-5l2-1v-3c0.306-1.34 0.635-2.68 1-4l2 1h2c1.56-3.13 2.12-5.61 2.06-9.06-0.0507-3.2 0.108-4.99 0.938-7.94 0.382-2.66 0.688-5.33 1-8l3.38-0.688c3.71-0.889 3.71-0.889 4.81-3.5 0.892-3.09 1.23-5.92 1.44-9.12 0.0748-1.07 0.15-2.14 0.227-3.24 0.049-0.808 0.098-1.62 0.148-2.45l-2-1c0.333-1.67 0.667-3.33 1-5l0.5-2.62c0.5-2.38 0.5-2.38 1.5-5.38h3l1 2 1-5z" fill="#191C1D"/>
<path transform="translate(1039,301)" d="m0 0c0.99 0.33 1.98 0.66 3 1 0.674 1.66 1.34 3.33 2 5 1.31 1.35 2.64 2.69 4 4l1 3-1.47 1.41c-13.9 14.3-17.7 32.2-18.5 51.6-9.67-8.76-15.8-20.2-21-32v-2l-2-1c-0.693-1.99-1.36-3.99-2-6l-2-3c0.375-2.19 0.375-2.19 1-4l2.12 0.125c2.89 0.0294 2.89 0.0294 5.44-1.12 5.11-1.49 10.1-1.15 15.4-1v-3c2.26-1.55 4.55-2.78 7-4v-4c2.81-2.81 2.81-2.81 6-5z" fill="#F7A406"/>
<path transform="translate(1232,355)" d="m0 0c-12.3 20.5-32.7 38.3-55 47-1.21 0.477-2.42 0.954-3.66 1.45-6.99 2.62-13.9 5.05-21.3 2.55l-1-2c3.46-0.495 3.46-0.495 7-1l0.375-1.88c0.625-2.12 0.625-2.12 2.62-4.12l2-3c1.92-1.21 1.92-1.21 4.19-2.38 6.23-3.34 11.8-6.63 15.8-12.6l1-4c0.99-0.33 1.98-0.66 3-1l1-2h3l-1-3c2.29-2.02 3.7-2.95 6.75-3.44 3.56-0.616 6.01-1.85 9.17-3.51 4.87-2.46 9.74-4.01 15.1-5.05l1.88-1.06c3.05-1.35 5.84-1.06 9.12-0.938z" fill="#EB5912"/>
<path transform="translate(1147,344)" d="m0 0h5v2l6 3c-0.507 3.72-1.12 6.73-3 10h-2v3h-2v2l-4 1-1 4h-4c-2.6 2.35-2.6 2.35-5 5-3.44 2.29-4.99 2.18-9 2v2c-0.928 0.248-1.86 0.495-2.81 0.75-3.27 0.918-6.39 2.09-9.56 3.31-4.94 1.82-9.4 2.59-14.6 2.94-1.61 0.158-3.21 0.325-4.81 0.5-1.06 0.108-1.06 0.108-2.14 0.219-3.11 0.429-5.78 1.17-8.67 2.41l-2.38 0.875-2-1v-2h-2v2l-3.25-0.562c-4.02-0.501-4.02-0.501-7.75 0.562l-1 2-2-4-1 3-4-2-3 2c-3.39-4.09-6.31-7.93-8-13 1.44-2.19 1.44-2.19 3-4l5 2v2l2-1.06c2.96-0.924 4.17-0.937 7.12-0.5 3.78 0.845 3.78 0.845 6.88-0.438 3.68-0.132 6.49-0.17 10 1l2.44-0.5c2.56-0.5 2.56-0.5 4.33-0.0352 2.87 0.689 5.53 0.63 8.48 0.598 1.08-0.00902 2.16-0.018 3.27-0.0273 1.23-0.0174 1.23-0.0174 2.48-0.0352l1-2 2.75 0.0625c2.72-0.0523 4.67-0.375 7.25-1.06h4v-2c3.31-1.45 6.48-2.84 9.94-3.88 4.81-1.77 12.7-5.46 15.1-10.1 0.99-0.33 1.98-0.66 3-1v-2l-2-1c0.99-0.33 1.98-0.66 3-1 0.151-3.63 0.151-3.63-1-7z" fill="#F28506"/>
<path transform="translate(1134,342)" d="m0 0v2c-1.98 0.33-3.96 0.66-6 1v2l-2.44 0.875c-2.7 0.858-2.7 0.858-3.56 3.12-1.96 0.289-3.92 0.573-5.89 0.754-2.11 0.247-4.05 0.724-6.11 1.25-3.04 0.528-6.08 1.01-9.12 1.5-3.48 0.578-3.48 0.578-6.88 1.5l-1 2c-6.14-0.252-10.7-1.05-16-4.09-2.19-1.01-3.93-1.23-6.33-1.41l-3.62-0.5c-1.31-1.88-1.31-1.88-2-4l-1.56-1.38c-2.06-2.33-2.1-4.6-2.44-7.62 1.73-0.819 3.46-1.63 5.19-2.44 0.963-0.452 1.93-0.905 2.92-1.37 16.7-6.89 49.7-3.31 64.9 6.81z" fill="#F6A306"/>
<path transform="translate(1165,351)" d="m0 0c3.15 0.699 6.03 1.76 9 3v2l2 1c0 9.88 0 9.88-2.5 12.7l-1.5 1.31-1 3-3 1-2 2.06c-2 1.94-2 1.94-5 1.94l-1.31 1.81c-2.16 2.8-4.53 3.64-7.69 5.19-2.31 2.06-2.31 2.06-4 4l-3-1v2c-1.58 0.649-3.17 1.29-4.75 1.94-1.32 0.539-1.32 0.539-2.67 1.09-3.36 1.27-5.98 1.97-9.58 1.97v2c-3.73 2.03-5.67 3-10 3v4l-1.88 0.75c-2.5 1.47-2.96 2.66-4.12 5.25-6.53-0.578-12.6-1.76-18.9-3.5-1.26-0.338-1.26-0.338-2.55-0.684-3.22-0.87-6.41-1.76-9.58-2.82 1-3 1-3 4-5l2.88 0.562c3.91 0.548 4.92-0.399 8.12-2.56 1.99-0.693 3.99-1.36 6-2 3.29-1.38 6.55-2.8 9.81-4.25 0.722-0.248 1.44-0.495 2.19-0.75l2 1v-2l2.25 0.625c3.1 0.422 4.2 0.104 6.75-1.62l1-2c2.31-0.599 4.62-0.957 6.97-1.34 0.67-0.218 1.34-0.436 2.03-0.66l1-3 10-1 1-3h3l1-3c1.31-1.44 1.31-1.44 3-3l2-2.12c2-1.88 2-1.88 5-2.88 2.09-3.13 2.47-6.32 3-10 0.326-1.67 0.657-3.34 1-5z" fill="#F1710D"/>
<path transform="translate(1244,323)" d="m0 0c1.94 4.86-0.437 9.31-2 14h-3l-0.375 3.56c-1.27 5.23-4.71 7.23-9.02 10.1-2.59 1.34-4.74 1.94-7.61 2.35v2c-3.35 0.678-6.71 1.34-10.1 2-1.41 0.286-1.41 0.286-2.86 0.578-12.8 2.49-12.8 2.49-17.1 0.504-3.94-3.47-3.94-3.47-4.25-6.64l0.25-2.44c-0.916-2.25-0.916-2.25-2-4l3-2-4-2c0.681-0.0864 1.36-0.173 2.06-0.262 6.23-0.903 12.2-2.26 18.2-4.11 0.648-0.197 1.3-0.394 1.96-0.596 4.11-1.31 7.87-2.98 11.7-4.96 3.71-1.9 7.48-3.65 11.3-5.38 0.781-0.372 1.56-0.744 2.37-1.13 7.05-3.21 7.05-3.21 11.4-1.56z" fill="#F07C09"/>
<path transform="translate(1118 68.6)" d="m0 0c2.58 0.41 2.58 0.41 4.39 2.43 0.538 0.922 1.08 1.84 1.63 2.79 0.594 1.01 1.19 2.03 1.8 3.07 0.581 1.03 1.16 2.05 1.76 3.11 0.53 0.852 1.06 1.7 1.61 2.58 4.73 7.92 7.28 16.5 9.39 25.4 0.191 0.802 0.383 1.6 0.58 2.43 1.7 8.07 1.65 16 1.55 24.3-0.0101 1.4-0.0192 2.79-0.0273 4.19-0.0234 3.38-0.0561 6.75-0.0977 10.1h-1v-5h-2l-1-10h-2c-0.437-1.16-0.437-1.16-0.883-2.34-2.63-6.68-5.38-12.3-10.1-17.7-0.785-0.924-0.785-0.924-1.59-1.87-3.95-4.32-8.01-6.69-13.4-8.99-2.04-1.14-2.04-1.14-3.04-4.14 0.471-0.352 0.941-0.704 1.43-1.07 5.28-4.19 8-7.86 8.97-14.8 0.332-3.39 0.605-6.77 0.605-10.2l-7 4c1.75-4.08 3.8-7.63 8.42-8.41z" fill="#683D0F"/>
<path transform="translate(1060,340)" d="m0 0 3 2v3l3 2c0.688 2.12 0.688 2.12 1 4l3.5 0.25c4.07 0.488 6.98 1.89 10.5 3.83 2.89 1.36 5.8 1.61 8.95 1.92 0.99 0.33 1.98 0.66 3 1l1-3c1.85-0.314 3.71-0.626 5.56-0.938 1.1-0.184 2.19-0.369 3.32-0.559 2.34-0.379 4.7-0.705 7.05-1 3.06-0.379 3.06-0.379 5.75-1.62 2.61-0.988 3.74-0.829 6.31 0.125l2-4h4v-2c2.97-0.495 2.97-0.495 6-1l-1-2-2 1v-3l8 1-1 2 5 1c-1.56 4.22-4.45 6.37-8 9-2.31 0.688-2.31 0.688-4 1l-1 2c-1.69 0.938-1.69 0.938-4 2l-3 1.69c-3 1.31-3 1.31-5.38 1l-1.62-0.688v2c-5.96 2.32-10.6 3.21-17 3-2 0.327-4 0.659-6 1l-1-1-2.5 0.438c-8.17 1.31-16.5 0.669-24.5-1.44l-1-2h-7l-2-4h-4c-0.726-4.17-0.626-6.05 1.75-9.66 2.32-2.87 4.64-5.73 7.25-8.34z" fill="#F59909"/>
<path transform="translate(1473,239)" d="m0 0c4.29 7.35 4.7 14.8 3 23-5.75 20.1-16.7 34.4-34 46l-3 1c-1-2-1-2-0.25-5.31 1.13-3.34 2.41-5.72 4.25-8.69 0.483-0.848 0.967-1.7 1.46-2.57 0.729-1.26 0.729-1.26 1.47-2.55 0.483-0.848 0.967-1.7 1.46-2.57 1.6-2.3 1.6-2.3 3.79-3.92 0.895-0.684 0.895-0.684 1.81-1.38 0.158-3.05 0.158-3.05-1-6 0.488-1.97 0.488-1.97 1.31-4.06 0.264-0.692 0.529-1.38 0.801-2.1 0.887-1.84 0.887-1.84 2.89-3.84l-1-2h2v-3h2l-0.688-3.12c-0.358-4.44 0.156-6.25 2.69-9.88 2.56-1.44 2.56-1.44 5-2l2 1v-3l2-2 2-3z" fill="#191C1D"/>
<path transform="translate(1239 112)" d="m0 0c1.27-0.0258 2.53-0.0516 3.84-0.0781 3.22 0.328 3.22 0.328 5.04 1.84 0.391 0.49 0.781 0.98 1.18 1.48 2.32 0.185 2.32 0.185 5-2 0 4.27-0.611 6.42-3 10l-2-1 1-2h-6l1-3-2-1v4c-1.17 0.211-2.35 0.422-3.55 0.639-4.45 0.804-8.9 1.62-13.3 2.45-1.91 0.351-3.81 0.699-5.72 1.04-16.3 2.93-32.7 6.49-47.6 13.9-0.666 0.313-1.33 0.625-2.02 0.947-4.62 2.23-8.63 4.92-12.7 7.99l-2-1 2-1.81c2.34-2.06 2.34-2.06 2-5.19 1.61-1.81 3.22-3.37 5-5 0.5-0.527 1-1.05 1.52-1.6 13.5-13.3 34.3-17.6 52.5-19.2 2.39-0.218 4.77-0.514 7.15-0.804 4.24-0.401 8.49-0.547 12.8-0.625z" fill="#008C34"/>
<path transform="translate(1089,227)" d="m0 0c1.6-0.0216 3.21-0.0648 4.81-0.125 5.4-0.0412 10.3 0.83 15.2 3.12 2.62 2.69 2.62 2.69 4 5-0.638 2.38-0.638 2.38-2 5-2.56 1.15-2.56 1.15-5.79 1.88-1.17 0.282-2.34 0.563-3.55 0.854-1.23 0.274-2.46 0.548-3.73 0.83-10.8 2.48-10.8 2.48-21 6.52-2.69 1.29-5.46 2.27-8.29 3.23-0.998 0.347-2 0.694-3.02 1.05-2.6 0.637-2.6 0.637-5.6-0.363l2-3-5-2c3.18-6.53 6.69-12 12-17l1-2c1.98-0.735 3.98-1.39 6-2 0.969-0.392 1.94-0.784 2.94-1.19 3.74-0.993 6.25-0.448 10.1 0.188z" fill="#FAC507"/>
<path transform="translate(1e3 181)" d="m0 0c1.94 0.625 1.94 0.625 4 2 1.06 2.62 1.06 2.62 1 6-2.73 6.4-7.26 11.1-13.4 14.2-6.77 1.98-13.5 1.88-20.5 1.85-1.03-0.00141-2.07-0.00283-3.13-0.00429-3.28-0.00557-6.56-0.0181-9.84-0.0309-2.23-0.00502-4.46-0.00958-6.7-0.0137-5.46-0.011-10.9-0.0277-16.4-0.0488l-1-2-4-1-1-2c-1.98-0.727-3.98-1.4-6-2 1.68-3.36 4.65-3.95 8.07-5.18 7.87-2.02 16.6-1.05 24.7-0.766 2.44 0.0584 2.44 0.0584 5.28-1.05 2.06-0.069 4.13-0.0847 6.19-0.0625 1.63 0.0135 1.63 0.0135 3.29 0.0273 0.831 0.0116 1.66 0.0232 2.52 0.0352v2c0.99 0.33 1.98 0.66 3 1v2l2 2-5 4c1.84 0.772 1.84 0.772 4 1l3-3c2.12 0.375 2.12 0.375 4 1 1.18-0.982 1.18-0.982 1.25-2.81 1.08-3.16 3.05-4.34 5.75-6.19h2l0.812-2.94 1.19-3.06c0.99-0.33 1.98-0.66 3-1 1.21-2 1.21-2 2-4z" fill="#191C1D"/>
<path transform="translate(337,351)" d="m0 0c0.742 5.38 1.03 10.5 0.938 15.9-0.0459 4.28 0.131 8.09 1.12 12.2 1.6 7.05 1.41 13.9-2.31 20.2-2.22 3.12-4.53 5.44-7.75 7.56l-2.56 1.75c-5.11 1.86-10.1 1.48-15.4 1.25-0.609-2.36-0.609-2.36-1-5 2.1-2.62 4.2-4.13 7-6l-4-3 2-2h3c1.43-3.34 2.35-6.43 3-10 0.349-1.61 0.704-3.21 1.06-4.81 0.177-0.79 0.353-1.58 0.535-2.39 0.133-0.592 0.266-1.18 0.402-1.79l2.38-0.25c2.77-0.478 2.77-0.478 3.94-2.81l0.688-1.94h2v-2h-2c-1.44-8.11-1.44-8.11 0.25-11.5 3.85-5.5 3.85-5.5 6.75-5.5z" fill="#191C1D"/>
<path transform="translate(1240,239)" d="m0 0 1 3h2c2.68 4.72 4.03 9.45 5.35 14.7 0.432 2.24 0.432 2.24 1.65 3.29 0.476 2.7 0.782 5.28 1 8 0.0902 1.08 0.18 2.15 0.273 3.26 0.403 8.72-0.925 14.7-6.27 21.7-2.23 2.29-4.42 4.09-7 6l-2-2c-2.07-0.643-2.07-0.643-4-1-1.6-4.91-2.1-8.79-2-14l-0.625-2.25-0.375-1.75 2-3-0.5-1.94c-0.65-2.68 0.103-3.76 1.5-6.06l2 1 0.438-2.19c0.363-1.81 0.737-3.63 1.12-5.44 0.528-2.46 0.528-2.46 0.438-5.38 0.886-5.48 2.08-10.8 4-16z" fill="#EA5911"/>
<path transform="translate(1145,274)" d="m0 0-2 6 1.38 1.25c3.82 4.12 3.9 7.71 3.88 13.2 0.00773 1.96 0.00773 1.96 0.0156 3.97-0.239 3.18-0.569 4.89-2.27 7.53-9.69-2.26-19.4-4.55-29-7 3-2 3-2 5-2v-12c-0.99-0.33-1.98-0.66-3-1l-0.375-2.38c-0.416-2.77-0.416-2.77-2.62-4.62v-2c3.89-0.563 7.79-1.1 11.7-1.62 1.1-0.16 2.21-0.32 3.34-0.484 1.07-0.142 2.13-0.284 3.23-0.43 1.47-0.204 1.47-0.204 2.97-0.413 3.08-0.0538 5.01 0.628 7.77 1.95z" fill="#FAC607"/>
<path transform="translate(1381 190)" d="m0 0c0.985 0.287 1.97 0.575 2.98 0.871 0.748 0.228 1.5 0.456 2.27 0.691v2c2.33 1.2 2.33 1.2 5 2l3-2c3.26-0.833 5.21-1.31 8.38-0.0625l1.62 1.06c-1 3-1 3-2.85 3.95l-2.21 0.738c-1.1 0.377-1.1 0.377-2.22 0.762-0.566 0.182-1.13 0.364-1.71 0.551 2.97 0.495 2.97 0.495 6 1v1c-15.7 0.105-31.3 0.174-47-1v-1l8-1c-0.842 0.00524-1.68 0.0105-2.55 0.0159-3.15 0.0171-6.3 0.0296-9.45 0.0391-1.36 5e-3 -2.72 0.0118-4.08 0.0205-1.96 0.0123-3.93 0.0173-5.89 0.0222-1.18 0.00524-2.36 0.0105-3.57 0.0159-3.46-0.114-3.46-0.114-7.21-0.682-3.25-0.673-3.25-0.673-6.25 0.569-4-4.75-4-4.75-4-7 3.67-2.4 5.8-1.71 10-1 1.38-0.104 2.75-0.254 4.12-0.438 3.41-0.445 6.68-0.607 10.1-0.562 5.93 0.0538 11.8-0.167 17.8-0.438 0.921-0.0393 1.84-0.0786 2.79-0.119 0.874-0.0419 1.75-0.0838 2.65-0.127 1.17-0.055 1.17-0.055 2.37-0.111 2.2-0.146 2.2-0.146 4.3-0.76 2.81-0.663 4.9 0.177 7.64 0.992z" fill="#1C1F1F"/>
<path transform="translate(516,198)" d="m0 0h4v6c-7.21 1.51-14.1 2.3-21.4 2.32-0.977 0.01-1.95 0.0201-2.96 0.0304-3.19 0.0306-6.37 0.0478-9.56 0.0648-2.23 0.0187-4.45 0.0383-6.68 0.0587-5.83 0.0511-11.7 0.0908-17.5 0.128-5.96 0.0402-11.9 0.0912-17.9 0.141-11.7 0.0965-23.3 0.181-35 0.258l-1-5c3.33-2.22 4.21-2.2 8.06-2.06 3.46 0.117 6.74-0.0134 10.2-0.431 7.13-0.73 14.3-0.651 21.4-0.639 1.5-6.75e-4 2.99-0.00165 4.49-0.0029 3.12-0.00147 6.23 6.41e-4 9.35 0.00534 3.98 0.00572 7.97 0.0024 11.9-0.00357 3.08-0.00362 6.16-0.00246 9.24 1.28e-4 1.47 6.64e-4 2.94-1.41e-4 4.41-0.00248 2.05-0.00255 4.1 0.00135 6.16 0.0069 1.75 0.00119 1.75 0.00119 3.53 0.00241 3.16 0.124 6.12 0.573 9.24 1.13 2.95 0.107 2.95 0.107 5.56-0.562 2.44-0.438 2.44-0.438 4.44 0.562v-2z" fill="#1D1F20"/>
<path transform="translate(603,329)" d="m0 0c2.02 2.51 4.03 5.03 6.01 7.58 14.7 18.5 32.6 29 56.1 31.8 25 2.48 46.4-5.06 65.9-20.4 7.27-5.67 13.1-7.63 22.3-6.54 7.13 1.41 11.6 4.6 15.7 10.5 0.812 2.38 0.812 2.38 1 4-3.73-1.24-5.39-3.11-8-6v-2c-4.69-1.19-9.25-1.15-14.1-1.12-1.2-0.0058-1.2-0.0058-2.43-0.0117-1.16 0.00193-1.16 0.00193-2.35 0.00391-0.701 0.00113-1.4 0.00226-2.13 0.00342-2.11 0.135-3.99 0.555-6.03 1.13v2c-4.38 3-4.38 3-7 3l-1 3h-2v2h-3l-1 3c-3.06 1.19-3.06 1.19-6 2v2c-1.27 0.506-2.54 1-3.81 1.5-0.708 0.278-1.42 0.557-2.14 0.844-2.04 0.656-2.04 0.656-5.04 0.656v2c-9.24 2.54-17.8 3.48-27.4 3.38-1.26-0.0058-2.53-0.0116-3.83-0.0176-8.91-0.124-17.2-0.871-25.8-3.36v-2l-3.81-0.438c-2.61-0.3-4.66-0.721-7.19-1.56v-2l-2.88-0.938c-3.12-1.06-3.12-1.06-5.12-2.06v-2l-2.12-0.688c-3.47-1.58-6.08-3.77-8.88-6.31l-2.5-2.25c-4.87-5.36-11.5-13.3-11.5-20.8z" fill="#010203"/>
<path transform="translate(637,202)" d="m0 0 1 2 2-1c2.33-0.0402 4.67-0.0432 7 0-2.75 1.83-5.52 3.24-8.5 4.66-7.15 3.44-13.6 6.98-19.5 12.3-0.587 0.495-1.17 0.99-1.78 1.5-13.1 11.9-19.7 29.5-22.3 46.5-0.255 1.66-0.588 3.32-0.936 4.96l-2 1v9l-4-1-1-5 2-1c-0.348-0.531-0.696-1.06-1.05-1.61-1.27-3.21-0.728-5.28-0.0703-8.64 0.204-1.08 0.407-2.16 0.617-3.27 0.168-0.82 0.335-1.64 0.508-2.48h2c-0.16-0.853-0.16-0.853-0.324-1.72-0.89-5.73-0.409-9.01 2.32-14.3 0.573-1.31 1.14-2.62 1.69-3.94l1.31-3.06h2l2-9h2l0.625-3.19c1.25-4.48 3.64-6.17 7.38-8.81l2-1v-2c0.759-0.326 1.52-0.652 2.3-0.988 0.994-0.437 1.99-0.874 3.01-1.32 1.48-0.644 1.48-0.644 2.99-1.3 2.68-1.19 2.68-1.19 4.23-2.98 2.04-1.95 3.84-2.09 6.59-2.53 3.24-0.312 3.24-0.312 5.88-1.88z" fill="#191C1D"/>
<path transform="translate(1233,241)" d="m0 0 3 3-1 3h-2c-0.248 0.887-0.495 1.77-0.75 2.69-1.75 4.65-4.37 7.47-7.94 10.9-2.29 2.41-3.02 3.23-3.31 6.44l0.125 2.94c-0.145 3.55-1.28 5.1-3.12 8.06l1 3c-0.324 1.34-0.657 2.67-1 4l1 2-0.562 2.75c-0.778 5.78 1.93 10.2 4.56 15.2-1.8 3.38-2.99 4-6.69 5.25-4.15 0.878-8.08 0.901-12.3 0.75l1.88-0.625c2.38-1.28 2.38-1.28 3.5-4.19 0.718-3.66 0.406-4.96-1.38-8.19l-1.69-1.75c-2.72-4.67-0.434-11.2 0.688-16.2l0.5-2.69c0.5-2.31 0.5-2.31 1.5-4.31 0.04-2 0.0435-4 0-6l-2-1c5.65-4.77 9.75-7.34 17-9v-2h3v-2h2c0.205-0.782 0.41-1.56 0.621-2.37 0.269-1.01 0.539-2.02 0.816-3.07 0.267-1.01 0.534-2.02 0.809-3.06 0.754-2.5 0.754-2.5 1.75-3.5z" fill="#F1720C"/>
<path transform="translate(1068,255)" d="m0 0c-0.713 0.508-1.43 1.02-2.16 1.54-2.96 2.13-5.91 4.29-8.84 6.46-0.663 0.489-1.33 0.977-2.01 1.48-7.69 6.1-12.9 14.6-17 23.4-1.01 2.09-1.01 2.09-3.01 5.09l-2.06-0.875c-3.27-1.25-6.57-2.2-9.94-3.12l-0.312-1.94-0.688-2.06c-0.99-0.33-1.98-0.66-3-1l1-2c-0.99-0.33-1.98-0.66-3-1 2.4-3.17 4.62-5.86 8-8h2v-2c9.7-6.72 20.7-11.6 32-15 0.674-0.218 1.35-0.436 2.04-0.66 4.71-1.47 4.71-1.47 6.96-0.34z" fill="#EE6511"/>
<path transform="translate(1225,253)" d="m0 0c-0.312 1.88-0.312 1.88-1 4-3 2-3 2-5.81 2.88-3.54 1.25-6.21 2.86-9.19 5.12-0.0627 2.17-0.0627 2.17 0.562 4.94 0.438 3.06 0.438 3.06-0.562 6.06-0.358 2.33-0.688 4.66-1 7-0.921 6.79-0.921 6.79-1.81 9.12-0.304 3.04 1.95 4.58 3.81 6.88 1.15 3.67 1.29 5.3-0.188 8.88-0.598 0.701-1.2 1.4-1.81 2.12h-4v2h-10l2-4h2c-0.311-1.58-0.624-3.17-0.938-4.75-0.174-0.882-0.348-1.76-0.527-2.67-0.486-2.51-0.486-2.51-1.13-4.63-0.475-2.27-0.295-4.03 0.0312-6.32 0.352-2.69 0.553-5.09 0.5-7.81 0.0723-3.25 0.91-5.79 2.06-8.81h2l-1-3c0.938-2.19 0.938-2.19 2-4h2v-2c2.97-0.99 5.94-1.98 9-3v-2c-2.31 0.33-4.62 0.66-7 1 3.44-2.3 5.94-2.54 10-3l0.375-1.94 0.625-2.06c3.07-1.53 5.7-0.55 9 0z" fill="#F17D08"/>
<path transform="translate(1018,324)" d="m0 0c1.69 2.44 1.69 2.44 3 5 2.02 0.733 2.02 0.733 4 1 2 2 2.81 3.48 4 6 0.536 0.874 0.536 0.874 1.08 1.77 1.2 2.93 0.931 4.97 0.605 8.11-0.108 1.14-0.217 2.27-0.328 3.44-0.119 1.22-0.237 2.43-0.359 3.68-0.195 2.6-0.383 5.21-0.562 7.81-0.0838 1.18-0.168 2.36-0.254 3.58-0.0909 1.29-0.0909 1.29-0.184 2.61-9.67-8.76-15.8-20.2-21-32v-2l-2-1c-0.407-2.32-0.744-4.66-1-7 4.4-0.858 8.53-1.51 13-1z" fill="#F9AC0E"/>
<path transform="translate(1466,386)" d="m0 0c4.61-0.314 6.43 0.171 10 3 0.99-0.33 1.98-0.66 3-1v2h2c1.51 3.02 1.5 4.62 1 8-3.86 5.96-9.05 10.5-15.9 12.6-2.27 0.455-4.39 0.622-6.71 0.668-1.16 0.0387-1.16 0.0387-2.35 0.0781-0.668-0.108-1.34-0.217-2.02-0.328l-2-3-2.56-1.44c-2.44-1.56-2.44-1.56-3.25-3.75l-0.188-1.81h-3l-1-5c3.64 0 5.09 0.858 8 3 0.688 2.12 0.688 2.12 1 4l2 1 1-4c-0.99-0.33-1.98-0.66-3-1 0.188-2.38 0.188-2.38 1-5 2.68-1.6 4.21-2.13 7.31-1.62l1.69 0.625 1-3 2-1 1-3z" fill="#1B1E1F"/>
<path transform="translate(409,362)" d="m0 0c15.2 0.0606 30.5 0.138 45.7 0.236 7.07 0.0449 14.1 0.0843 21.2 0.111 6.83 0.0255 13.7 0.0665 20.5 0.117 2.6 0.0167 5.2 0.0282 7.81 0.0344 3.65 0.00965 7.3 0.0377 11 0.07 1.07-0.00144 2.14-0.00287 3.25-0.00435 7.5 0.0935 13.9 1.16 20.4 5.12 3.64 3.74 7.25 7.95 7.25 13.3h-2c-3-5.75-3-5.75-3-8-2.65-1.08-5.28-2.09-8-3v-2l-124-1v-5z" fill="#000102"/>
<path transform="translate(1244,320)" d="m0 0v3c-1.15 0.0864-2.29 0.173-3.48 0.262-4.8 0.603-8.61 2.38-12.9 4.55-1.5 0.732-3 1.46-4.5 2.19-0.713 0.348-1.43 0.696-2.16 1.06-3.91 1.87-7.9 3.45-12 4.94-0.87 0.348-1.74 0.696-2.64 1.05-7.06 2.64-13.8 3.66-21.3 4.26-3.76 0.32-5.85 0.55-9.05 2.68-4.67 0.483-9.37 0.388-14.1 0.375-0.679 1.21e-4 -1.36 2.42e-4 -2.06 3.66e-4 -11.1-0.0282-21.2-1.22-31.9-4.38-13.5-3.79-26.2-6.15-40.2-6.31-0.911-0.0177-1.82-0.0354-2.76-0.0537-8.4 0.00914-16.8 1.81-24 6.37-1.64 1.69-3.14 3.44-4.61 5.28-1.37 1.69-2.83 3.21-4.39 4.72 2.48-7.45 5.81-11.7 12.7-15.3 17.6-8.03 38.1-5.1 56.2-0.188 35.9 9.42 73.3 6.3 106-10.1 1.13-0.549 2.26-1.1 3.43-1.66 1.03-0.512 2.05-1.02 3.11-1.55 3.56-1.29 6.38-1.34 10.1-1.14z" fill="#000102"/>
<path transform="translate(1189,138)" d="m0 0c4.52 0.476 4.52 0.476 6.38 2.5 1.69 1.85 1.69 1.85 5.12 1.94l3.5 0.562c0.429 0.666 0.859 1.33 1.3 2.02 1.61 2.33 1.61 2.33 4.84 2.37 1.76-0.0696 1.76-0.0696 3.55-0.141 1.18-0.0361 2.36-0.0722 3.57-0.109 0.904-0.0464 1.81-0.0928 2.74-0.141v2c-18.7 5.56-38.5 7.79-58 7 0.606-3.6 0.964-3.97 4.03-6.47 1.29-0.879 2.6-1.74 3.91-2.59 1.01-0.667 1.01-0.667 2.05-1.35 4.58-2.92 8.93-4.98 14.3-6.19 1.78-0.242 1.78-0.242 2.76-1.4z" fill="#008D34"/>
<path transform="translate(1072,285)" d="m0 0c1.07 4.03 0.679 6.93 0 11 0.292 1.67 0.619 3.34 1 5-0.906 0.352-1.81 0.704-2.75 1.07-7.68 3.11-14 6.35-20.3 11.9-2.9-2.86-5.51-5.77-8-9v-3l-2-1c5.05-5.24 10-8.73 16.6-11.7 0.668-0.307 1.34-0.615 2.02-0.932 4.67-2.13 8.21-3.52 13.4-3.38z" fill="#FAC507"/>
<path transform="translate(404,205)" d="m0 0 5 2v28h-1l-1-12c-4.24 14.6-4.24 14.6-1 29-0.312 2.5-0.312 2.5-1 5l-0.562 2.31-0.438 1.69h-2c-3.33-6.28-4.45-10.9-4-18l-1.88 0.562c-2.12 0.438-2.12 0.438-4.12-0.562v-3h6c-0.968-3.8-0.968-3.8-3-7-0.0472-1.54-0.0372-3.08 0-4.62 0.0482-4.23-0.367-8.18-1-12.4-0.25-3.81-0.25-3.81 0-7l3-2 3 2 4-4z" fill="#1C1E1F"/>
<path transform="translate(1016,281)" d="m0 0 4 1v2l2 1c0.414 0.998 0.414 0.998 0.836 2.02 0.985 2.2 0.985 2.2 3.33 2.59 1.22 0.0696 1.22 0.0696 2.46 0.141 1.23 0.0851 1.23 0.0851 2.48 0.172 0.626 0.0258 1.25 0.0516 1.9 0.0781v2h2l-1 11 2.88-2.5c2.88-2.5 2.88-2.5 5.12-2.5-1.04 3.13-2.22 4.95-4.77 7.06-5.02 2.12-11 0.668-16.2-0.0586v2l-11-1v-2c-0.99-0.33-1.98-0.66-3-1-1.71-4.03-0.432-7.38 0.832-11.4 1.9-4.26 4.87-7.38 8.17-10.6z" fill="#F1720D"/>
<path transform="translate(920,242)" d="m0 0h2l2 13h1v105c-1.99-3.98-2.27-5.64-2.34-9.94-0.0445-1.71-0.0445-1.71-0.0898-3.46l-0.133-7.2c-0.0445-1.71-0.0445-1.71-0.0898-3.46-0.0187-1.04-0.0374-2.09-0.0566-3.16-0.106-2.72-0.106-2.72-1.29-4.66-1.14-2.41-1.27-4.06-1.3-6.72-0.0166-0.91-0.0333-1.82-0.0504-2.76-0.00841-0.982-0.0168-1.96-0.0255-2.98-0.017-1.03-0.034-2.06-0.0515-3.12-0.0531-3.31-0.0933-6.61-0.132-9.92-0.0591-4.3-0.124-8.6-0.191-12.9-0.0159-1.05-0.0318-2.11-0.0482-3.2-0.178-10.5-0.652-21-1.2-31.5h-1v-6h2l1-7z" fill="#1A1D1E"/>
<path transform="translate(339,180)" d="m0 0h1c0.054 2.75 0.0937 5.5 0.125 8.25 0.0251 1.17 0.0251 1.17 0.0508 2.36 0.0608 7.12 0.0608 7.12-2.18 10.4l1 1c0.102 2.68 0.139 5.32 0.125 8 0.00387 0.731 0.00773 1.46 0.0117 2.21-0.00129 0.733-0.00258 1.47-0.00391 2.22-0.00113 0.659-0.00226 1.32-0.00342 2-0.112 2.23-0.344 4.38-0.618 6.59-0.659 5.74-0.739 11.5-0.828 17.2-0.0208 1.14-0.0416 2.28-0.063 3.46-0.0649 3.62-0.124 7.23-0.183 10.8-0.0432 2.46-0.0869 4.93-0.131 7.39-0.107 6.01-0.208 12-0.307 18h-1l-1-38h-1l-1-5-3 3-1-5h-1v-16h-2c-0.399-3.49-0.229-4.7 1.94-7.56 0.681-0.804 1.36-1.61 2.06-2.44 0.643-2.07 0.643-2.07 1-4l2-3c0.277-2.67 0.464-5.26 0.562-7.94 0.367-8.67 0.367-8.67 1.44-12.1h2l1 2 1-4z" fill="#1A1D1E"/>
<path transform="translate(1244,323)" d="m0 0c1.61 4.03 0.657 7.11-1 11-3.12 1.44-3.12 1.44-6 2v2c-9.56 5.23-19 8.57-30 6l-2-2v-3l-2-2c0.944-0.255 0.944-0.255 1.91-0.516l2.59-0.734c1.25-0.348 1.25-0.348 2.53-0.703 3.09-1.09 5.89-2.45 8.81-3.95 3.74-1.9 7.54-3.67 11.4-5.41 0.781-0.372 1.56-0.744 2.37-1.13 7.05-3.21 7.05-3.21 11.4-1.56z" fill="#F3900A"/>
<path transform="translate(339,197)" d="m0 0h1v187h-1c-2.05-8.07-2.28-15.8-2.26-24.1-0.00272-1.4-0.00628-2.8-0.0106-4.19-0.00907-3.77-0.0056-7.55 7.58e-4 -11.3 0.00511-3.98 3.54e-4 -7.97-0.00277-12-0.00363-6.7 0.00113-13.4 0.0107-20.1 0.0108-7.68 0.00741-15.4-0.00365-23-0.00918-6.65-0.0103-13.3-0.00512-19.9 0.00307-3.95 0.00367-7.89-0.00307-11.8-0.0275-18.6 0.474-37 2.27-55.5l-2-1 2-4z" fill="#1D1F20"/>
<path transform="translate(770,375)" d="m0 0c-1.38 7.87-9.88 14.4-16 19-7.93 5.42-16.1 8.99-25.1 12.1-1.37 0.467-1.37 0.467-2.77 0.943-7.17 2.31-7.17 2.31-11.1 0.994h2v-2l-4-1h6l1-4 1 2h3v-3c0.887-0.248 1.77-0.495 2.69-0.75 3.37-1.05 3.37-1.05 5.75-3.38 3.33-2.43 5.54-2.19 9.56-1.88l1-3 2.94-0.938c3.12-0.711 3.12-0.711 4.12-2.88 0.309-0.722 0.619-1.44 0.938-2.19 4.33-4.78 4.33-4.78 8-6l1-3c3.68-2.04 5.99-2.15 10-1z" fill="#1A1D1E"/>
<path transform="translate(816 158)" d="m0 0c1.1-0.00446 1.1-0.00446 2.23-9e-3 2.46-0.00866 4.92-0.0102 7.39-0.0117 1.77-0.00463 3.54-0.00966 5.3-0.015 4.8-0.0131 9.6-0.0196 14.4-0.024 3-0.00293 6-0.00704 9-0.0115 9.4-0.0137 18.8-0.0233 28.2-0.0272 10.8-0.00448 21.7-0.022 32.5-0.051 8.38-0.0216 16.8-0.0317 25.1-0.033 5-0.00105 10-0.00692 15-0.0248 4.71-0.0165 9.42-0.0186 14.1-0.00986 1.72 7.68e-4 3.45-0.00354 5.17-0.0135 18.9-0.102 18.9-0.102 25.1 3.37 1.76 2.11 1.76 2.11 3 4l-4-1v-2c-4.61-0.901-9.07-1.14-13.7-1.13-1.14-0.0034-1.14-0.0034-2.31-0.00687-2.54-0.00631-5.08-0.00551-7.62-0.00469-1.83-0.00299-3.65-0.0064-5.48-0.0102-4.95-0.00882-9.9-0.0112-14.9-0.0118-3.09-7.11e-4 -6.19-0.00285-9.28-0.0055-10.8-0.00925-21.6-0.0133-32.4-0.0125-10.1 6.01e-4 -20.1-0.00996-30.2-0.0257-8.64-0.0131-17.3-0.0184-25.9-0.0178-5.16 2.55e-4 -10.3-0.00261-15.5-0.0132-4.85-0.00967-9.7-0.00977-14.5-0.00248-1.78 0.00105-3.56-0.00133-5.34-0.00736-2.43-0.0077-4.86-0.00309-7.28 0.00463-0.705-0.00514-1.41-0.0103-2.14-0.0156-3.97 0.0279-6.87 0.655-10.5 2.26h-3v2l-5 2c3.32-4.72 6.61-7.13 12.2-8.57 3.42-0.532 6.71-0.563 10.2-0.571z" fill="#000102"/>
<path transform="translate(1188,270)" d="m0 0-0.625 2.19c-0.628 2.79-0.628 2.79 0.668 5.07 1.24 3.54 0.649 5.71-0.105 9.36-1.25 7.5-0.34 13.6 3.06 20.4h-3c-0.144 0.639-0.289 1.28-0.438 1.94-0.562 2.06-0.562 2.06-1.56 3.06-2 0.0408-4 0.0425-6 0-2.47-8.41-5.5-19.8-2.06-28.3 1.14-2.89 1.63-5.61 2.06-8.69-0.99-0.33-1.98-0.66-3-1v-2c7.43-3.57 7.43-3.57 11-2z" fill="#F3900A"/>
<path transform="translate(1142,270)" d="m0 0c0.552 0.317 1.1 0.634 1.67 0.961 2.61 1.17 4.73 1.44 7.58 1.66 0.892 0.0748 1.78 0.15 2.7 0.227 1.01 0.0735 1.01 0.0735 2.05 0.148l0.375 1.94c0.823 4.03 1.72 8.05 2.62 12.1l-2 1v10l2 1-2 2 1 3h2v3c-5.49 1.12-8.83 0.792-14-1 0.0722-0.606 0.144-1.21 0.219-1.84 1.79-11.9 1.79-11.9-1.22-23.2-0.99-0.33-1.98-0.66-3-1l2-5-3-2 1-3z" fill="#F9AD0E"/>
<path transform="translate(1181,270)" d="m0 0-4 2 1.5 1.06c2.28 2.95 1.82 5.32 1.5 8.94-1 2.25-1 2.25-2 4 0 2.19 0.0241 4.38 0.0625 6.56-0.0625 3.44-0.0625 3.44-1.06 5.44l2 1-0.625 1.69c-0.482 2.97 0.499 4.57 1.62 7.31l-1 3c-1.42 0.0545-2.83 0.093-4.25 0.125-0.789 0.0232-1.58 0.0464-2.39 0.0703-2.57-0.212-4.15-0.909-6.36-2.2l4-1v-6h-2c-0.223-1.58-0.428-3.17-0.625-4.75-0.116-0.882-0.232-1.76-0.352-2.67-0.0259-2.85 0.615-4.13 1.98-6.58 0.21-3.43 0.0893-5.73-1-9 0.608-2.35 1.27-4.69 2-7v-1c3.72-0.693 7.21-1.11 11-1z" fill="#F59909"/>
<path transform="translate(383,398)" d="m0 0c0.99 0.33 1.98 0.66 3 1v2l2.56-0.625c5.25-0.573 9.08 0.721 13.4 3.62v-3c4 1 4 1 5.94 1.62 2.59 0.472 4.49-0.074 7.06-0.625 5.5-0.33 5.5-0.33 9 2l1-2c3.65 0.143 7.29 0.29 10.9 0.438 1.09 0.0437 2.19 0.0873 3.31 0.132 5.61 0.231 11.2 0.51 16.8 0.909 8.08 0.571 15.9 0.222 23.9-0.479 5.31-0.343 8.79-0.558 13 3-1.33-0.00333-1.33-0.00333-2.69-0.00673-8.47-0.0203-16.9-0.0354-25.4-0.0451-4.35-0.00516-8.7-0.0121-13.1-0.0236-24.1-0.0836-24.1-0.0836-48.2 0.454-0.978 0.0306-1.96 0.0612-2.96 0.0928-0.874 0.0384-1.75 0.0769-2.65 0.116-0.747 0.031-1.49 0.062-2.26 0.094-2.06 0.183-2.06 0.183-3.81 2.32-3.62-0.375-3.62-0.375-7-1v-2c-2.31-0.33-4.62-0.66-7-1l-1-3c2.81-2.06 2.81-2.06 6-4z" fill="#1A1D1E"/>
<path transform="translate(1333,283)" d="m0 0h50v1l-24 2-2 5 2.38-0.562c4.66-0.563 8.98-0.0336 13.6 0.562-0.943 2.36-1.58 3.73-3.74 5.12-2.68 1.05-4.73 1.12-7.61 1.11-1.52-0.0029-1.52-0.0029-3.08-0.00586-1.05-0.0122-2.11-0.0245-3.2-0.0371-1.06-6.45e-4 -2.12-0.00129-3.22-0.00195-7.88-0.0451-7.88-0.0451-10.2-1.19v-2h-7l2-1 0.938-2.44c1.06-2.56 1.06-2.56 4.06-4.56-4.46-0.99-4.46-0.99-9-2v-1z" fill="#1B1E1E"/>
<path transform="translate(165,258)" d="m0 0 2 3 2-2c0.054 2.1 0.0928 4.21 0.125 6.31 0.0232 1.17 0.0464 2.34 0.0703 3.55-0.195 3.14-0.195 3.14-2.2 6.14-0.00417 2.53-0.00417 2.53 0.402 5.36 0.685 6.69 0.505 13.2 0.16 19.9-0.0522 1.14-0.104 2.28-0.158 3.45-0.128 2.77-0.263 5.53-0.404 8.3-3 1-3 1-6 0-1.61-3.21-1.06-6.44-1-10h-2c-2.1-3.41-2.33-6.03-2-10 1-2.38 1-2.38 2-4h2l1-8h2c0.0853-4.71 0.151-9.16-0.688-13.8-0.371-3.79 0.427-5.2 2.69-8.19z" fill="#1A1D1E"/>
<path transform="translate(409,260)" d="m0 0c12.8 0.0613 25.5 0.138 38.3 0.236 5.93 0.0447 11.9 0.0839 17.8 0.111 5.73 0.0261 11.5 0.0665 17.2 0.117 2.18 0.0167 4.36 0.0282 6.54 0.0344 3.06 0.00966 6.12 0.0377 9.18 0.07 1.35-0.00215 1.35-0.00215 2.72-0.00435 6.53 0.0969 12.2 1.09 17.5 5.12 0.539 0.579 1.08 1.16 1.63 1.75 0.554 0.576 1.11 1.15 1.68 1.75 1.51 1.9 2.59 3.55 3.45 5.82l-1 3v-2h-2c-3-4.38-3-4.38-3-7-2.33-1.21-4.5-2.17-7-3v-2h-103v-4z" fill="#000102"/>
<path transform="translate(1145,274)" d="m0 0-2 6 1.38 1.25c3.82 4.12 3.9 7.71 3.88 13.2l0.0156 3.97c-0.266 3.53-0.266 3.53-2.27 7.53l-10-2c0.0838-1.02 0.168-2.05 0.254-3.11 0.103-1.36 0.206-2.72 0.309-4.08 0.0561-0.674 0.112-1.35 0.17-2.04 0.277-3.79 0.233-7.09-0.732-10.8h-2c-1.12-2.81-1.12-2.81-2-6l2-3-2-2c8.43-1.43 8.43-1.43 13 1z" fill="#FABA08"/>
<path transform="translate(1171,249)" d="m0 0c0 3 0 3-1.88 5.19-6.66 6.26-13.9 12.7-22.8 15.4-2.92 0.868-4.12 1.24-6.31 3.44-2.29 0.407-2.29 0.407-5.2 0.641-1.09 0.0976-2.18 0.195-3.31 0.296-1.79 0.155-1.79 0.155-3.62 0.313-28 2.75-60.9 6.07-83.9 23.8l-2-1c15.6-13 35.3-18.6 55-22 0.71-0.121 1.42-0.242 2.15-0.366 7.48-1.26 15-2.43 22.5-3.31 19.1-2.28 36.1-7.34 49.4-22.3z" fill="#080603"/>
<path transform="translate(1194,341)" d="m0 0c3 3.44 3 3.44 3 6 1.91 1.06 1.91 1.06 3.81 1.38 2.71 0.774 4.78 2.18 7.19 3.62 5.6 2.22 11.7-1.06 17-3 1.58-0.737 3.14-1.5 4.69-2.31l3.31-1.69 2 1c-8.26 6.7-8.26 6.7-13 7v2c-3.35 0.678-6.71 1.34-10.1 2-1.41 0.286-1.41 0.286-2.86 0.578-12.8 2.49-12.8 2.49-17.1 0.504-3.94-3.47-3.94-3.47-4.25-6.64l0.25-2.44c-0.916-2.25-0.916-2.25-2-4l3-2-4-2c5.62-1.12 5.62-1.12 9 0z" fill="#F0720D"/>
<path transform="translate(1425,264)" d="m0 0 1 3h-2l-0.812 2.44c-0.392 0.846-0.784 1.69-1.19 2.56-0.99 0.33-1.98 0.66-3 1v2h-2v2c-3.09 1.76-4.23 2-8 2v2c-5.39 1.52-10.3 2.29-15.9 2.23-0.742 2.92e-4 -1.48 5.84e-4 -2.25 8.85e-4 -2.42-0.00138-4.85-0.0169-7.27-0.0326-1.69-0.00373-3.39-0.00658-5.08-0.00858-4.43-0.0076-8.86-0.0272-13.3-0.0494-4.53-0.0205-9.06-0.0296-13.6-0.0397-8.88-0.0214-17.8-0.0555-26.6-0.0977v-3c1.32-0.0121 1.32-0.0121 2.66-0.0245 8.31-0.0783 16.6-0.166 24.9-0.263 4.27-0.0497 8.54-0.0961 12.8-0.134 4.13-0.0371 8.26-0.0836 12.4-0.136 1.57-0.0184 3.14-0.0336 4.7-0.0453 15-0.116 28.1-0.77 39.5-11.4 1.81-2.16 1.81-2.16 3-4z" fill="#000102"/>
<path transform="translate(1373,308)" d="m0 0h7l-2 7h-39v3l-3.88 0.188c-0.719 0.0348-1.44 0.0696-2.18 0.105-0.642-0.0967-1.28-0.193-1.95-0.293-2-3-2-3-1.62-5.69l0.625-2.31c5.94-1.9 12-0.948 18 0h2c1.69 0.0174 1.69 0.0174 3.41 0.0352 1.36 0.00931 2.73 0.0184 4.09 0.0273 0.69 0.00838 1.38 0.0168 2.09 0.0254 3.83 0.0894 3.83 0.0894 7.41-1.09 2.01 0.281 4.01 0.611 6 1v-2z" fill="#1C1F1F"/>
<path transform="translate(1477,388)" d="m0 0h2v2h2c1.51 3.02 1.5 4.62 1 8-4 6.18-9.14 10.2-16 12.8-3 0.376-5.98 0.308-9 0.25 0-3.29 0.243-4.29 2-7 1.94-1.75 3.97-3.36 6-5l1-2h2l0.625-1.88c1.91-2.96 4.1-3.08 7.38-4.12l1-3z" fill="#1A1D1E"/>
<path transform="translate(768,197)" d="m0 0c0.611 8.66 0.509 15.9-5 23-4.95 4.17-9.71 6.15-16.2 6.06-1.35-0.0135-1.35-0.0135-2.73-0.0273-0.687-0.0116-1.37-0.0232-2.08-0.0352v-1l8-1-5-4 1.94-0.375 2.06-0.625 1-2-2-1v-4c1.98-0.33 3.96-0.66 6-1v2c2.99-0.469 2.99-0.469 6-2 1.87-4.31 2.37-7.49 1-12 5.88-2 5.88-2 7-2z" fill="#1A1D1E"/>
<path transform="translate(1110,335)" d="m0 0c1.77 2.08 1.77 2.08 3 4-4.93 1.97-8.78 2.18-14 2v2c-1.6 0.249-3.21 0.474-4.81 0.688-0.893 0.128-1.79 0.255-2.71 0.387-2.48-0.0742-2.48-0.0742-4.07-1.51-0.464-0.516-0.928-1.03-1.41-1.56-3.61-0.73-3.61-0.73-7-1v-2h-4v-2h-2v-2c9.89-2.85 27.5-3.08 37 1z" fill="#F9AD0E"/>
<path transform="translate(1008,290)" d="m0 0c1.6 4 0.293 7.05-1 11l1.5 1.38c1.5 1.62 1.5 1.62 1.5 3.62 0.626-0.0116 1.25-0.0232 1.9-0.0352 0.817-0.00902 1.63-0.018 2.48-0.0273 0.812-0.0116 1.62-0.0232 2.46-0.0352 2.16 0.0977 2.16 0.0977 4.16 1.1v-2h12l1 3c-1 1-1 1-4.44 1.38l-3.56 0.625-2 3c-1.82 0.464-1.82 0.464-3.99 0.582-0.788 0.0445-1.58 0.0889-2.39 0.135-0.824 0.0316-1.65 0.0632-2.5 0.0957-1.22 0.0764-1.22 0.0764-2.47 0.154-4.18 0.201-7.01 0.334-10.7-1.97-1.75-4.36-0.465-8.34 0.75-12.7 0.17-0.676 0.34-1.35 0.516-2.05 1.02-3.77 1.38-5.02 4.73-7.26z" fill="#F3900B"/>
<path transform="translate(1060,289)" d="m0 0 2 1c-1.81 2.5-1.81 2.5-4 5h-3l0.875 2.62c1.04 3.12 2.08 6.25 3.12 9.38l-9 7c-2.92-2.92-5.48-5.74-8-9v-3l-2-1c7.9-8.19 7.9-8.19 13-10l2.06 0.562 1.94 0.438c1.77-1.35 1.77-1.35 3-3z" fill="#FABB08"/>
<path transform="translate(1299 159)" d="m0 0c1.31-0.0064 1.31-0.0064 2.65-0.0129 0.953 4.53e-4 1.91 9.06e-4 2.89 0.00137 1.01-0.00336 2.02-0.00672 3.06-0.0102 3.35-0.00951 6.69-0.0115 10-0.0125 2.33-0.00321 4.67-0.00658 7-0.0101 4.9-0.00599 9.81-0.00784 14.7-0.00725 6.25 1.01e-4 12.5-0.0135 18.7-0.0308 4.83-0.0112 9.66-0.0131 14.5-0.0126 2.3-0.00117 4.6-0.00555 6.9-0.0133 12.2-0.0374 24.1 0.106 36.1 2.24v1h-128c3.9-2.6 6.78-3.12 11.4-3.13z" fill="#000102"/>
<path transform="translate(1007,330)" d="m0 0 2 1v2l3.38-0.0625c3.62 0.0625 3.62 0.0625 5.62 1.06 1.44 2.19 1.44 2.19 3 5l1.56 2.5c2.76 6.72 3.61 14.3 3.44 21.5-3.81-3.58-6.77-7.32-9.56-11.8-0.585-0.92-0.585-0.92-1.18-1.86-7.26-11.6-7.26-11.6-7.26-16.4l-2-1 1-2z" fill="#FBBB07"/>
<path transform="translate(1185,124)" d="m0 0c1.12 3.75 1.12 3.75 0 6l2 2c-0.559 0.241-1.12 0.482-1.69 0.731-2.59 1.12-5.16 2.26-7.74 3.39-0.878 0.379-1.76 0.758-2.66 1.15-6.08 2.69-11.5 5.86-16.9 9.73l-2-1 2-1.81c2.34-2.06 2.34-2.06 2-5.19 1.61-1.81 3.21-3.38 5-5 0.605-0.574 1.21-1.15 1.83-1.74 11.4-10.5 11.4-10.5 18.2-8.26z" fill="#008635"/>
<path transform="translate(1467,201)" d="m0 0c2.35 2.12 3.53 3.82 4.54 6.81 0.251 0.741 0.502 1.48 0.761 2.25 0.253 0.786 0.506 1.57 0.766 2.38 0.263 0.808 0.526 1.62 0.797 2.45 2.97 9.37 4.47 18.3 4.14 28.1-2.5-2.93-3.61-5.15-4-9l1-3-2-1-1-2-4 1-2-3-1 2c-1.52-2.41-2.02-3.68-1.81-6.56 0.871-2.61 1.63-3.78 3.81-5.44h2l-1.56-2.44c-1.84-4.56-1.31-7.83-0.438-12.6z" fill="#1A1C1D"/>
<path transform="translate(1068,255)" d="m0 0c-0.713 0.508-1.43 1.02-2.16 1.54-9.05 6.5-16.2 12.4-22.8 21.5-2.56-2.06-2.56-2.06-5-5 0.188-3.81 0.188-3.81 1-7l-2-1c7.22-3.45 14.3-6.73 22-9 0.672-0.217 1.34-0.433 2.04-0.656 4.71-1.47 4.71-1.47 6.96-0.344z" fill="#E72D19"/>
<path transform="translate(1009,289)" d="m0 0c2.9 2.4 3.5 4.31 4 8 0.71 0.205 1.42 0.41 2.15 0.621 0.919 0.269 1.84 0.539 2.79 0.816 0.917 0.267 1.83 0.534 2.78 0.809 2.29 0.754 2.29 0.754 3.29 1.75 4.65 0.305 4.65 0.305 9-1l2 3 2.38-2.5c2.62-2.5 2.62-2.5 4.62-2.5-1.04 3.13-2.22 4.95-4.77 7.06-5.02 2.12-11 0.668-16.2-0.0586v2l-11-1v-2c-0.99-0.33-1.98-0.66-3-1-1.52-3.39-0.687-5.83 0.438-9.25 0.287-0.892 0.575-1.78 0.871-2.7 0.228-0.675 0.456-1.35 0.691-2.05z" fill="#DC7A06"/>
<path transform="translate(123,270)" d="m0 0h1c-0.00222 0.846-0.00444 1.69-0.00673 2.56-0.0202 8.03-0.0353 16.1-0.0451 24.1-0.00519 4.13-0.0122 8.25-0.0236 12.4-0.011 3.99-0.0169 7.99-0.0194 12-0.00183 1.51-0.00539 3.02-0.0109 4.54-0.0294 8.5 0.168 16.9 0.872 25.4 0.833 10.9-0.341 21.3-1.77 32h-1c-0.0233-14.6-0.0409-29.2-0.0518-43.8-0.00516-6.77-0.0122-13.5-0.0236-20.3-0.011-6.53-0.0168-13.1-0.0194-19.6-0.00185-2.5-0.00548-4.99-0.0109-7.49-0.00721-3.48-0.00826-6.97-0.0078-10.5-0.0036-1.04-0.00719-2.09-0.0109-3.16 0.00137-0.944 0.00275-1.89 0.00417-2.86-9.22e-4 -0.825-0.00184-1.65-0.00279-2.5 0.123-1.87 0.123-1.87 1.12-2.87z" fill="#1B1E1E"/>
<path transform="translate(1147,162)" d="m0 0c-3.37 1.26-6.21 0.774-9.71 0.271-4.21-0.498-8.43-0.455-12.7-0.458-0.901-0.0122-1.8-0.0245-2.73-0.0371-0.86-0.00193-1.72-0.00387-2.61-0.00586-0.776-0.00411-1.55-0.00822-2.35-0.0125-2.17 0.0717-2.17 0.0717-3.94 2.24l3 2-2.38 0.875c-2.72 0.974-2.72 0.974-4.62 3.12-2.69 0.27-5.29 0.0874-8 0v-3l-1 1c-1.98 0.0209-3.96-0.0094-5.94-0.0625-5.94-0.059-11.3 0.609-17.1 2.06 14.9-14.9 51.3-11.9 70-8z" fill="#864C05"/>
<path transform="translate(1434,320)" d="m0 0c3.82 3.72 7.31 7.61 10.8 11.7 3.54 4.17 7.11 8.29 10.8 12.3 4.01 4.41 7.69 9.03 11.3 13.7 2.19 2.83 4.39 5.62 6.7 8.35 9.41 11.1 9.41 11.1 9.41 17.9h-2c-0.11-0.566-0.219-1.13-0.332-1.71-0.159-0.733-0.317-1.47-0.48-2.22-0.151-0.731-0.302-1.46-0.457-2.21-0.241-0.61-0.482-1.22-0.73-1.85-0.99-0.33-1.98-0.66-3-1-0.685-1.32-1.35-2.66-2-4-1.61-1.56-1.61-1.56-3.44-2.94-2.93-2.41-4.95-4.56-6.56-8.06v-3l-1.94-0.812c-2.06-1.19-2.06-1.19-3.06-4.19h-2c-1.01-1.66-2.01-3.33-3-5l-3-2-1-3-3-3v-2h-2v-3h-2v-2h-2l-2-5h-2c-2.3-2.56-3-3.48-3-7z" fill="#010203"/>
<path transform="translate(1039,266)" d="m0 0v9c0.99 0.33 1.98 0.66 3 1-0.615 5.54-0.615 5.54-2.56 7.88l-1.44 1.12-2-2-2 1c-2.62-1.31-2.62-1.31-5-3v-2l-2-1c-0.722-1.64-1.39-3.31-2-5h2v-2c1.61-1.29 1.61-1.29 3.75-2.62 0.696-0.446 1.39-0.892 2.11-1.35 2.14-1.02 2.14-1.02 6.14-1.02z" fill="#EA5911"/>
<path transform="translate(1474,258)" d="m0 0h1c1.3 11.2-5.77 23.1-12 32-2.8 3.24-5.67 6.31-9 9h-2c0.286-0.562 0.572-1.12 0.867-1.7 1.15-2.33 2.21-4.67 3.26-7.05 0.353-0.799 0.706-1.6 1.07-2.42 0.266-0.603 0.531-1.21 0.805-1.83h2c1.18-2.78 2.08-5.36 2.75-8.31 1.59-4.69 4.19-7.86 7.25-11.7l2-3h2v-5z" fill="#141919"/>
<path transform="translate(1234 326)" d="m0 0c0.554 0.373 1.11 0.745 1.68 1.13-0.188 2.81-0.188 2.81-1 6-2.89 2.28-4.3 3-8 3v2c-1.75 0.196-3.5 0.381-5.25 0.562-0.975 0.104-1.95 0.209-2.95 0.316-2.6 0.112-4.41 0.125-6.8-0.879l-1-3c3.32-1.69 6.66-3.35 10-5 1.47-0.75 1.47-0.75 2.97-1.52 1.44-0.704 1.44-0.704 2.9-1.42 0.884-0.442 1.77-0.884 2.68-1.34 2.45-0.723 2.45-0.723 4.77 0.148z" fill="#F59909"/>
<path transform="translate(166,386)" d="m0 0h1c1.06 5.72 1.83 10.4-1.55 15.4-2.74 3.04-5.87 5.6-9.45 7.61h-3c-2.09-4.43-2.09-4.43-1.62-7.31l0.625-1.69h2l1-2c0.99 0.33 1.98 0.66 3 1l3-9h3v-2h2v-2z" fill="#191C1D"/>
<path transform="translate(1152,164)" d="m0 0c2.38 1.25 2.38 1.25 4 3 0.25 2.69 0.25 2.69 0 5 0.99 0.33 1.98 0.66 3 1-1 2-1 2-3.19 3.12-3.27 1.02-5.4 1.36-8.81 0.875-2.02-1.64-4.02-3.31-6-5-3.22-0.874-3.22-0.874-6-1v-2c3.29-0.8 4.71-1.1 8 0v-5c3.56-1.19 5.38-0.887 9 0z" fill="#E17508"/>
<path transform="translate(1105 331)" d="m0 0c0.832 0.118 1.66 0.235 2.52 0.356 5.37 0.84 10.1 2.27 15.1 4.33v2c-0.612-0.121-1.22-0.242-1.85-0.367-11.3-2.19-22.5-4.03-34-4.07-0.871-0.00967-1.74-0.0193-2.64-0.0293-8.15 0.107-16.5 2.05-23.5 6.47-1.64 1.69-3.14 3.44-4.61 5.28-1.37 1.69-2.83 3.21-4.39 4.72 2.48-7.45 5.81-11.7 12.7-15.3 13.3-6.06 26.5-5.41 40.7-3.38z" fill="#020202"/>
<path transform="translate(1182,341)" d="m0 0v2c0.99 0.33 1.98 0.66 3 1l-2.31 0.25c-3.22 0.899-4.01 1.93-5.69 4.75v1c-9.01 1.17-17.5 1.87-25.3-3.61-0.568-0.459-1.14-0.918-1.72-1.39 2.56-1.28 4.48-1.18 7.34-1.25 1.59-0.0493 1.59-0.0493 3.22-0.0996 2.25-0.0611 4.49-0.118 6.74-0.172 1.6-0.0512 1.6-0.0512 3.22-0.104 0.977-0.0251 1.95-0.0501 2.96-0.0759 3.46-0.417 4.92-2.3 8.51-2.3z" fill="#E75911"/>
<path transform="translate(543,389)" d="m0 0h2c1.43 2.87 1.31 4.81 1 8-2.76 5.77-7.43 9.12-13 12-2.79 0.668-2.79 0.668-5 1l-1-5c0.99-0.33 1.98-0.66 3-1v-2c0.99-0.33 1.98-0.66 3-1l1.88-3c2.12-3 2.12-3 4.88-3.88 0.742-0.0412 1.48-0.0825 2.25-0.125l1-5z" fill="#1A1D1E"/>
<path transform="translate(1240,334)" d="m0 0 2 1v2h-3l-0.625 2.44c-0.454 0.846-0.908 1.69-1.38 2.56-3.12 0.812-3.12 0.812-6 1v2c-5.37 1.79-10.5 2.25-16.1 2.31-0.681 0.0174-1.36 0.0348-2.06 0.0527-4.67-0.00454-7.86-0.896-11.8-3.37l-1-2c-0.99-0.33-1.98-0.66-3-1v-2c2.81-1.12 2.81-1.12 6-2 3 2 3 2 3.69 4.12l0.312 1.88c11.3 1.45 18 0.122 28-5h2v-2l3-2z" fill="#F18506"/>
<path transform="translate(1323,368)" d="m0 0h1c0.117 4.17 0.188 8.33 0.25 12.5 0.0503 1.76 0.0503 1.76 0.102 3.55 0.0806 7.17-0.393 11.9-4.35 17.9-1.91 1.9-3.81 3.41-6 5-0.965-3-1.22-5.04 0-8 0.99-0.33 1.98-0.66 3-1 1.49-8.53 1.49-8.53 2.5-17.1 0.5-3.88 0.5-3.88 2.5-5.88 0.4-2.32 0.74-4.66 1-7z" fill="#151A1A"/>
<path transform="translate(1039,301)" d="m0 0c0.99 0.33 1.98 0.66 3 1 0.674 1.66 1.34 3.33 2 5 1.31 1.35 2.64 2.69 4 4l1 3c-1.36 2.04-1.36 2.04-3.31 4.19-0.636 0.715-1.27 1.43-1.93 2.17-1.76 1.64-1.76 1.64-3.76 1.64l-0.586-6.15c-0.205-0.915-0.205-0.915-0.414-1.85l-2-1v-2h-2l-2-5c4.39-4 4.39-4 6-5z" fill="#F9AD0E"/>
<path transform="translate(1012,285)" d="m0 0 1 2 2 0.875 2 1.12c0.121 0.647 0.242 1.29 0.367 1.96 0.428 2.2 0.428 2.2 2.45 3.09 4.92 1.5 9.03 2.28 14.2 1.95-1.88 4.88-1.88 4.88-3 6-6.1 0.636-10.7-0.935-16-4-3.36-2.83-4.15-5.7-5-10l2-3z" fill="#F17D08"/>
<path transform="translate(1100,275)" d="m0 0 1 3c-0.658 0.115-1.32 0.23-1.99 0.348-19.4 3.45-39.1 7.46-55 19.7l-2-1c15-12.5 38.3-22 58-22z" fill="#000102"/>
<path transform="translate(1212,259)" d="m0 0v2c-9.79 4.6-20 9-31 9v-2h-4v-2c1.39-0.199 1.39-0.199 2.81-0.402 1.2-0.177 2.4-0.353 3.63-0.535 1.19-0.174 2.39-0.348 3.62-0.527 2.82-0.225 2.82-0.225 3.94-1.54 1.67-0.0406 3.33-0.0427 5 0v-2c2.1-0.336 4.21-0.669 6.31-1 1.17-0.186 2.34-0.371 3.55-0.562 3.14-0.438 3.14-0.438 6.14-0.438z" fill="#F59A07"/>
<path transform="translate(676 153)" d="m0 0c1.3 0.00129 2.6 0.00258 3.95 0.00391 9.68 0.0964 18.8 0.994 28.2 3.31v1c-0.882-0.0715-1.76-0.143-2.67-0.217-12.3-0.89-24.5-0.898-36.8-0.846-2.1 0.00503-4.19 0.00959-6.29 0.0137-5.07 0.0109-10.1 0.0281-15.2 0.0488v-1c9.68-1.62 19-2.35 28.8-2.31z" fill="#020304"/>
<path transform="translate(1010,338)" d="m0 0 2.19 1.88c2.62 2.25 2.62 2.25 5.5 2.88 2.31 1.25 2.31 1.25 3.07 3.15 0.502 2.01 0.88 4.06 1.24 6.1h3l1 11c-3.91-3.66-6.83-7.42-9.69-11.9-0.39-0.595-0.78-1.19-1.18-1.8-2.33-3.64-3.93-7.07-5.13-11.3z" fill="#FAC808"/>
<path transform="translate(337,390)" d="m0 0 2 2c-0.309 5.56-3.45 9.53-7.38 13.2-2.81 1.87-5.39 2.85-8.62 3.75v-2l3-2c1.14-1.62 1.14-1.62 2.06-3.44 1.23-2.29 2.48-4.38 3.94-6.56h2v-3l3-2z" fill="#141919"/>
<path transform="translate(1355 199)" d="m0 0 2.5-0.0625c5.49-0.0348 9.23 0.808 14.1 3.31v1h-31v-3c4.78-1.21 9.48-1.22 14.4-1.25z" fill="#1E2021"/>
<path transform="translate(1013,227)" d="m0 0 1 2c0.99 0.33 1.98 0.66 3 1l-3 9h-2c-0.144 0.784-0.289 1.57-0.438 2.38-0.562 2.62-0.562 2.62-1.56 4.62-0.99-0.33-1.98-0.66-3-1-1.43-4.28 0.544-6.87 2.44-10.7 0.338-0.702 0.677-1.4 1.03-2.13 0.837-1.73 1.69-3.46 2.54-5.19z" fill="#E49008"/>
<path transform="translate(1225,253)" d="m0 0c-0.312 1.88-0.312 1.88-1 4-3.01 2.01-5.58 2.88-9 4-0.722 0.392-1.44 0.784-2.19 1.19-1.81 0.812-1.81 0.812-4.81-0.188l4-1v-2c-2.31 0.33-4.62 0.66-7 1 3.44-2.3 5.94-2.54 10-3l0.375-1.94 0.625-2.06c3.07-1.53 5.7-0.55 9 0z" fill="#F17F08"/>
<path transform="translate(339,180)" d="m0 0h1v14l-2 1c-0.722 1.64-1.39 3.31-2 5h-2c-0.0271-2.25-0.0464-4.5-0.0625-6.75-0.0116-1.25-0.0232-2.51-0.0352-3.8 0.0774-2.74 0.27-4.87 1.1-7.45h2l1 2 1-4z" fill="#181A1B"/>
<path transform="translate(328,161)" d="m0 0c-2.42 1.21-3.36 0.944-6 0.562-4.31-0.551-8.49-0.61-12.8-0.5-2.16-0.0625-2.16-0.0625-5.16-1.06v2c-0.99-0.33-1.98-0.66-3-1 9.19-6.48 17.6-6.31 27 0z" fill="#0B0D0D"/>
<path transform="translate(1171,249)" d="m0 0c0 3 0 3-1.88 5.19-7.65 7.19-15.2 13.2-25.4 16-1.25 0.344-2.51 0.688-3.8 1.04-0.953 0.254-1.91 0.508-2.89 0.77l1-3c2.52-1.14 2.52-1.14 5.81-2.25 10.8-3.97 19.5-9.09 27.2-17.8z" fill="#000102"/>
<path transform="translate(1170,129)" d="m0 0 2 1-2 1.88c-2.23 1.88-2.23 1.88-2 4.12h3v3c-2.52 1.82-2.52 1.82-5.81 3.69-1.08 0.623-2.16 1.25-3.27 1.89-2.92 1.43-2.92 1.43-5.92 1.43l2-1.81c2.34-2.06 2.34-2.06 2-5.19 2.19-2.38 2.19-2.38 5-5l5-5z" fill="#00762C"/>
<path transform="translate(534,190)" d="m0 0 2 2-1 3v3c-1.43 1.64-1.43 1.64-3.31 3.25-0.615 0.541-1.23 1.08-1.86 1.64-0.602 0.366-1.2 0.732-1.82 1.11-0.99-0.33-1.98-0.66-3-1l1-3h2l-0.125-3.38c0.125-3.62 0.125-3.62 2.12-5.62 2-0.75 2-0.75 4-1z" fill="#1A1D1E"/>
<path transform="translate(1319,232)" d="m0 0h2v22c-2-3-2-3-2-5-0.99 0.33-1.98 0.66-3 1-0.0544-1.58-0.093-3.17-0.125-4.75-0.0232-0.882-0.0464-1.76-0.0703-2.67 0.206-2.72 0.861-4.23 2.2-6.58 0.368-1.32 0.712-2.66 1-4z" fill="#1A1D1E"/>
<path transform="translate(708,157)" d="m0 0c12.5 1.37 23.5 7.42 34 14-3 1-3 1-6.19-0.438l-2.81-1.56v-2c-5.48-1.58-5.48-1.58-11-3v-2c-0.675-0.133-1.35-0.266-2.05-0.402-0.892-0.177-1.78-0.353-2.7-0.535-0.882-0.174-1.76-0.348-2.67-0.527-2.21-0.459-4.39-0.969-6.58-1.54v-2z" fill="#020304"/>
<path transform="translate(1288,330)" d="m0 0 5 1c1.47 8.29 1.47 8.29-1 12l-5-2c-0.143-7.43-0.143-7.43 1-11z" fill="#1C1F1F"/>
<path transform="translate(270,298)" d="m0 0c4.31 3.14 7.31 6.67 10.5 10.9 0.926 1.21 1.85 2.41 2.78 3.62 0.447 0.582 0.895 1.16 1.36 1.76 2.06 2.63 4.21 5.19 6.36 7.74l-1 2-2-1v-2c-0.99-0.33-1.98-0.66-3-1-0.685-1.32-1.35-2.66-2-4l-2.06-2c-2.08-2.14-2.26-3.21-2.94-6-0.99-0.33-1.98-0.66-3-1-0.688-2.06-0.688-2.06-1-4h-3l-1-5z" fill="#020304"/>
<path transform="translate(234,253)" d="m0 0c3.76 3.66 7.2 7.48 10.6 11.5 0.703 0.833 0.703 0.833 1.42 1.68 1.35 1.6 2.68 3.21 4.02 4.82 0.772 0.918 1.54 1.84 2.34 2.78 1.66 2.22 1.66 2.22 1.66 4.22-1.94-0.75-1.94-0.75-4-2-0.333-1.33-0.667-2.67-1-4l-4-2c-0.362-1.33-0.697-2.66-1-4-0.99-0.33-1.98-0.66-3-1-1.19-2.56-1.19-2.56-2-5h-2c-2.3-2.56-3-3.48-3-7z" fill="#010203"/>
<path transform="translate(923,382)" d="m0 0h1c1.85 13.2 1.85 13.2-1.8 19.5-1.2 1.49-1.2 1.49-4.2 3.49 0.292-1.31 0.583-2.62 0.875-3.94 0.182-0.819 0.364-1.64 0.551-2.48 0.371-1.67 0.744-3.34 1.12-5.01 0.861-3.85 1.71-7.7 2.46-11.6z" fill="#151A1A"/>
<path transform="translate(1425,264)" d="m0 0 1 3h-2l-0.812 2.44c-0.392 0.846-0.784 1.69-1.19 2.56-0.99 0.33-1.98 0.66-3 1v2h-2v2c-3.09 1.76-4.23 2-8 2v2h-2c0.27-1.88 0.27-1.88 1-4 1.64-1.09 1.64-1.09 3.69-1.94 5.59-2.55 9.86-5.88 13.3-11.1z" fill="#020304"/>
<path transform="translate(214,229)" d="m0 0c5.33 4.32 9.67 8.89 13.9 14.2 0.588 0.719 1.18 1.44 1.78 2.18 4.28 5.31 4.28 5.31 4.28 7.57-1.94-0.75-1.94-0.75-4-2-0.333-1.33-0.667-2.67-1-4l-4-2c-0.362-1.33-0.697-2.66-1-4-0.99-0.33-1.98-0.66-3-1-1.19-2.56-1.19-2.56-2-5h-2c-3-3.46-3-3.46-3-6z" fill="#010203"/>
<path transform="translate(1130,161)" d="m0 0c2.1 0.114 4.21 0.242 6.31 0.375 1.17 0.0696 2.34 0.139 3.55 0.211 3.14 0.414 3.14 0.414 6.14 2.41l-2 1c-0.652 2.02-0.652 2.02-1 4h-3v-3c-1.09-0.0825-2.19-0.165-3.31-0.25-3.69-0.75-3.69-0.75-5.42-2.8-0.628-0.967-0.628-0.967-1.27-1.95z" fill="#F07D08"/>
<path transform="translate(1194 263)" d="m0 0 2.44 0.0625-1.94 0.812c-2.39 1.07-2.39 1.07-3.06 4.19l-10 2v-2h-4v-2c1.39-0.199 1.39-0.199 2.81-0.402 1.2-0.177 2.4-0.353 3.63-0.535 1.19-0.174 2.39-0.348 3.62-0.527 3.06-0.557 3.5-1.52 6.5-1.6z" fill="#F59A08"/>
<path transform="translate(632,160)" d="m0 0v2c-0.953 0.326-1.91 0.652-2.89 0.988-1.27 0.441-2.53 0.883-3.8 1.32-1.24 0.429-2.48 0.859-3.76 1.3-3.13 1.22-5.7 2.65-8.55 4.39-3.31 0.688-3.31 0.688-6 1 4.18-3.76 8.48-5.7 13.6-7.75 0.763-0.316 1.53-0.632 2.31-0.957 5.66-2.29 5.66-2.29 9.06-2.29z" fill="#040506"/>
<path transform="translate(1216,118)" d="m0 0v3l-10 1v-3l-2-3c4.61-1.54 7.63 0.178 12 2z" fill="#008D37"/>
<path transform="translate(1322,338)" d="m0 0h1c1.33 5.97 1.09 11.9 1 18h-3c-0.876-6.54-1.35-11.8 1-18z" fill="#1D1F20"/>
<path transform="translate(254,278)" d="m0 0c3.86 3.75 7.37 7.69 10.8 11.8 0.502 0.597 1 1.19 1.52 1.81 1.22 1.46 2.45 2.92 3.67 4.38l-1 2c-1.71-1.62-3.37-3.29-5-5v-2c-0.99-0.33-1.98-0.66-3-1-1.19-2.56-1.19-2.56-2-5h-2c-2.3-2.56-3-3.48-3-7z" fill="#000103"/>
<path transform="translate(1325,311)" d="m0 0 2 2c-0.188 2.06-0.188 2.06-1 4-0.99 0.33-1.98 0.66-3 1-2.69-1.75-2.69-1.75-5-4v-3c2.71-1.35 4.13-0.788 7 0z" fill="#1C1F1F"/>
<path transform="translate(123,218)" d="m0 0h1c0.196 2.54 0.382 5.08 0.562 7.62 0.0561 0.713 0.112 1.43 0.17 2.16 0.293 4.25 0.163 8.01-0.732 12.2h-2c-0.0271-2.73-0.0469-5.46-0.0625-8.19-0.00838-0.769-0.0168-1.54-0.0254-2.33-0.017-3.97 0.102-7.61 1.09-11.5z" fill="#1C1F1F"/>
<path transform="translate(1376,169)" d="m0 0v2c0.99-0.33 1.98-0.66 3-1l1 2h-3c0.99 0.33 1.98 0.66 3 1l-1 3h-4v-4h-13v-1c1.58-0.338 3.17-0.67 4.75-1l2.67-0.562c2.58-0.438 2.58-0.438 6.58-0.438z" fill="#1C1F1F"/>
<path transform="translate(889,209)" d="m0 0c3.54 3.69 3.59 7.09 4 12l-4 2c-1.09-4.51-2.14-9.72 0-14z" fill="#1C1F1F"/>
<path transform="translate(1233,345)" d="m0 0 2 1c-1.29 0.981-2.58 1.96-3.88 2.94-0.719 0.545-1.44 1.09-2.18 1.65-4.07 2.95-7.01 2.49-11.9 2.41l1-2c1.65-0.47 3.29-0.934 4.95-1.36 2.98-0.94 5.62-2.42 8.35-3.94 0.561-0.233 1.12-0.467 1.7-0.707z" fill="#EB740D"/>
<path transform="translate(408,209)" d="m0 0h1v26h-1c-0.0606-0.904-0.121-1.81-0.184-2.74-0.0838-1.18-0.168-2.36-0.254-3.57-0.0812-1.17-0.162-2.34-0.246-3.55-0.203-3.16-0.203-3.16-1.32-6.14 0.34-2.48 0.34-2.48 0.938-5.19 0.195-0.901 0.389-1.8 0.59-2.73 0.234-1.03 0.234-1.03 0.473-2.08z" fill="#1A1D1E"/>
<path transform="translate(1253,113)" d="m0 0 2 2-2 2v3l-2 3-2-1 1-2h-6c2.26-3.39 3.34-3.63 7-5l2-2z" fill="#009236"/>
<path transform="translate(1434,320)" d="m0 0c4.25 4.12 8.14 8.51 12 13l-1 2-2-1v-2h-2l-2-5h-2c-2.3-2.56-3-3.48-3-7z" fill="#000102"/>
<path transform="translate(1152,269)" d="m0 0 5 1v1c-4.76 0.953-9.17 1.08-14 1l1-3c3.38-1.13 4.61-0.807 8 0z" fill="#E78408"/>
<path transform="translate(1217,257)" d="m0 0 1 2c-5.18 3.22-5.18 3.22-7 4-0.99-0.33-1.98-0.66-3-1l4-1v-2c-2.31 0.33-4.62 0.66-7 1 4.22-2.81 7.03-3.11 12-3z" fill="#F38D09"/>
<path transform="translate(588,184)" d="m0 0c0 4.1-1.55 5.76-4 9-2.75 2.38-2.75 2.38-5 4l-2-1c3.63-3.96 7.26-7.92 11-12z" fill="#0D0F10"/>
<path transform="translate(1167,149)" d="m0 0 2 1c0.688 2.5 0.688 2.5 1 5-1 1-1 1-4.56 1.06l-3.44-0.0625c0.398-2.89 0.79-3.82 3.06-5.75l1.94-1.25z" fill="#006A2B"/>
<path transform="translate(1318,210)" d="m0 0h3c1.12 6.75 1.12 6.75 0 9-0.99-0.33-1.98-0.66-3-1-1.12-5.75-1.12-5.75 0-8z" fill="#1A1D1E"/>
<path transform="translate(1298,358)" d="m0 0-1 8h-2l-1 3-2-7c3.75-4 3.75-4 6-4z" fill="#1D1F21"/>
<path transform="translate(1223,327)" d="m0 0 1 3c-0.699 0.277-1.4 0.554-2.12 0.84-0.91 0.362-1.82 0.724-2.76 1.1-0.905 0.36-1.81 0.719-2.74 1.09-2.34 0.922-2.34 0.922-4.38 1.97 0.184-1.86 0.184-1.86 1-4 2.29-1.27 2.29-1.27 5.06-2.25 0.919-0.335 1.84-0.67 2.79-1.02 0.71-0.242 1.42-0.485 2.15-0.734z" fill="#040403"/>
<path transform="translate(1212,259)" d="m0 0v2c-1.43 0.699-2.87 1.38-4.31 2.06-1.2 0.574-1.2 0.574-2.43 1.16-2.26 0.777-2.26 0.777-5.26-0.223h2v-3c6.62-2 6.62-2 10-2z" fill="#F6A007"/>
<path transform="translate(164,168)" d="m0 0c4.22 1.56 6.53 4.72 9.25 8.12 0.688 0.845 0.688 0.845 1.39 1.71 1.13 1.38 2.24 2.78 3.36 4.17-3 0-3 0-4.43-1.36-0.715-0.907-0.715-0.907-1.45-1.83-1.9-2.35-3.81-4.54-6-6.62-2.12-2.19-2.12-2.19-2.12-4.19z" fill="#030405"/>
<path transform="translate(594,258)" d="m0 0h2l-2 13h-2c-0.167-4.92-0.248-8.5 2-13z" fill="#1C1F1F"/>
<path transform="translate(1474,239)" d="m0 0c0.99 0.33 1.98 0.66 3 1 0.222 1.46 0.427 2.92 0.625 4.38 0.116 0.812 0.232 1.62 0.352 2.46 0.00773 0.714 0.0155 1.43 0.0234 2.16l-2 2c-1.14-4.27-2-7.56-2-12z" fill="#1C1F1F"/>
<path transform="translate(1217,245)" d="m0 0c1.75 1.44 1.75 1.44 3 3l-2 4-5-2v-4c1.81-0.688 1.81-0.688 4-1z" fill="#EF7B09"/>
<path transform="translate(1470,227)" d="m0 0 4 1c-0.256 2.34-0.593 4.68-1 7l-2 1c-1.62-2.25-1.62-2.25-3-5 0.812-2.31 0.812-2.31 2-4z" fill="#1D1F20"/>
<path transform="translate(1096,164)" d="m0 0c-3.18 2.73-6.01 3.77-10.1 4.75-1.04 0.263-2.09 0.526-3.16 0.797-2.78 0.453-2.78 0.453-5.78-0.547 2.23-0.843 4.45-1.67 6.69-2.5 0.626-0.238 1.25-0.477 1.9-0.723 3.6-1.32 6.58-2.07 10.4-1.78z" fill="#020203"/>
<path transform="translate(362,379)" d="m0 0h1c0.0606 0.797 0.121 1.59 0.184 2.41 0.511 6.64 0.511 6.64 1.5 13.2l0.312 2.38-2 2c-1.15-2.3-1.12-3.58-1.1-6.13 0.00322-0.806 0.00645-1.61 0.00977-2.44 0.00838-0.842 0.0168-1.68 0.0254-2.55 0.00451-0.849 0.00902-1.7 0.0137-2.57 0.0118-2.1 0.0297-4.2 0.0488-6.3z" fill="#1C1F1F"/>
<path transform="translate(325,169)" d="m0 0c1.43 2.35 2.09 3.48 1.62 6.25l-0.625 1.75h-3l-2-7c2-1 2-1 4-1z" fill="#1C1F1F"/>
<path transform="translate(647,156)" d="m0 0v2c-5.23 1.47-9.58 2.23-15 2 2.61-1.74 4.01-2.42 6.94-3.12 0.669-0.168 1.34-0.335 2.03-0.508 2.04-0.367 2.04-0.367 6.04-0.367z" fill="#030405"/>
<path transform="translate(678,155)" d="m0 0h14c-3.58 2.38-5.98 3.13-10.2 3.06l-3.81-0.0625v-3z" fill="#1A1D1E"/>
<path transform="translate(1238,140)" d="m0 0c-1 3-1 3-4.25 4.69-3.29 1.15-5.34 1.62-8.75 1.31 3.6-3.02 8.19-6 13-6z" fill="#009236"/>
<path transform="translate(1360,285)" d="m0 0c6.4-0.369 6.4-0.369 9.44 1.5l1.56 1.5c-1 1-1 1-3.07 1.1-0.824-0.0116-1.65-0.0232-2.5-0.0352-0.826-0.00902-1.65-0.018-2.5-0.0273-0.638-0.0116-1.28-0.0232-1.93-0.0352l-1-4z" fill="#1C1F1F"/>
<path transform="translate(185,265)" d="m0 0 5 1v4l4 2-2 3c-1.17-1.48-2.34-2.96-3.5-4.44-0.65-0.824-1.3-1.65-1.97-2.5-1.53-2.07-1.53-2.07-1.53-3.07z" fill="#1C1F1F"/>
<path transform="translate(1201,348)" d="m0 0c1.95 0.996 1.95 0.996 4.12 2.44 1.09 0.71 1.09 0.71 2.2 1.43 0.554 0.373 1.11 0.745 1.68 1.13-2.08 0.553-3.84 1-6 1v-2l-5-1c1-2 1-2 3-3z" fill="#E7770C"/>
<path transform="translate(281,313)" d="m0 0c3.21 1.38 5.05 2.92 7.25 5.62 0.781 0.947 0.781 0.947 1.58 1.91 0.58 0.723 0.58 0.723 1.17 1.46l-1 2-2-1v-2c-0.99-0.33-1.98-0.66-3-1-0.699-1.32-1.37-2.65-2-4l-2-1v-2z" fill="#040506"/>
<path transform="translate(619,217)" d="m0 0c0 3 0 3-1.43 4.72-0.934 0.882-0.934 0.882-1.89 1.78-0.615 0.588-1.23 1.18-1.86 1.78-0.602 0.567-1.2 1.13-1.82 1.72-1 0.997-2 2-3 3 0.595-3.29 1.67-5.13 3.88-7.62 0.513-0.59 1.03-1.18 1.55-1.79 1.57-1.59 1.57-1.59 4.57-3.59z" fill="#151A1A"/>
<path transform="translate(1235,121)" d="m0 0h10l-1 3c-2.56 1.19-2.56 1.19-5 2l-4-5z" fill="#017331"/>
<path transform="translate(1109,77)" d="m0 0c0 3 0 3-1.5 4.69l-1.5 1.31c0.573-2.87 0.861-3.86 3-6z" fill="#3D220B"/>
<path transform="translate(1158,141)" d="m0 0 1 2-2-1 1-1z" fill="#003113"/>
<path transform="translate(1160,154)" d="m0 0 2 1z" fill="#000102"/>
<path transform="translate(1264,111)" d="m0 0 2 1z" fill="#000102"/>
</svg>
